<svg xmlns="http://www.w3.org/2000/svg" id="Layer_1" data-name="Layer 1" viewBox="0 0 5385.55 3141.12">
  <defs>
    <style>
      .cls-1{fill:#ffffff}
    </style>
  </defs>
  <path d="M2685.6 15.76c6.51 3.34 13.67 3 20.65 3.5A549.2 549.2 0 0 1 2785.92 31a233 233 0 0 1 59.19 21.88A208.27 208.27 0 0 1 2897.89 94a57.29 57.29 0 0 1 13.82 24.84 5.48 5.48 0 0 1-4.61 6.89 36.6 36.6 0 0 1-18.9-1.66c-4.78-1.83-9.63-3.51-14.31-5.55q-38.68-16.89-77.3-33.94c-5.27-2.31-10.44-4.87-15.79-7a84.88 84.88 0 0 0-37.67-5.42c-.64 0-1.28.09-1.91.18-26.06 4.05-52.31 3.58-78.55 3.39a145.62 145.62 0 0 0-34.19 4.11c-72.07 16.78-137.54 47.66-197 91.49-18.57 13.69-36 28.68-53.18 44.1-20.32 18.28-35.53 40.11-46.8 64.9A504.16 504.16 0 0 0 2294.12 401a524.09 524.09 0 0 0-7.49 114.7c.85 19.9 3.62 39.53 10.6 58.31 16.73 45 34.44 89.55 58.67 131.2.64 1.1 1.33 2.18 1.95 3.3 11.05 19.89 25.91 36.19 44.26 49.79 37.17 27.56 76.37 51.43 119.19 69.2a450.91 450.91 0 0 0 202.58 34c34.69-2.08 68.52-8.17 101.45-19.38 61.71-21 112.35-57.53 152.57-108.66 23.91-30.4 42.32-64 56.77-99.76 10.55-26.11 19.25-52.87 27.44-79.8 5.57-18.36 10.74-36.84 16.58-55.11a77.15 77.15 0 0 0 3.7-28.37c-.83-13.4-2.14-26.77-3.44-40.14-1.61-16.56-4-33.06-5-49.64-2.87-46.13-16.19-89.08-37.45-129.91a704.34 704.34 0 0 0-71.91-111c-13.46-17.08-27.83-33.44-41.8-50.11-3.28-3.91-6.66-7.74-9.93-11.67a2 2 0 0 1 .45-3.27 2.29 2.29 0 0 1 1.68-.2 15.33 15.33 0 0 1 3.44 1.58c57.83 37.74 108.87 82.87 150.36 138.37q4.59 6.15 8.85 12.55a182.6 182.6 0 0 1 22.53 46.47 671.06 671.06 0 0 1 28 135 528.06 528.06 0 0 1-5.29 143.43c-7.73 44.93-20.7 88.35-40.64 129.55-33.13 68.45-82.7 121.26-150.1 156.6-51.14 26.79-104.14 49.08-159.99 64.31-3.68 1-7.34 2.16-10.91 3.5-1 .37-1.63 1.65-2.49 2.59 1 .43 2 1.18 3 1.21 39.44 1.15 649 .4 664.14-.76-.08-1.17.26-3.11-.29-3.39a92.59 92.59 0 0 0-12-5.58 420 420 0 0 1-54.32-24.11 387.57 387.57 0 0 1-104.34-80.53c-21.63-23.48-37-50.44-47-80.58-7.31-21.92-12.09-44.43-15.47-67.23-2.34-15.81-4.67-31.67-6-47.59-3.8-44.9-2.45-89.47 9.48-133.32 5.07-18.64 12.52-36.26 21-53.47 14.18-28.7 30-56.51 46.84-83.72q5.05-8.16 10.19-16.26a84.6 84.6 0 0 1 23.69-24.83c24.26-16.67 48.51-33.37 74.29-47.66 23-12.76 46.83-23.59 72.53-29.83 16.21-3.94 32.6-7 49.3-7 31.36.05 62.74-.16 94 1.14 27.61 1.14 54.56 6.68 80.15 17.75a206.93 206.93 0 0 1 38.45 21.49c5.75 4.11 11.19 8.62 15.15 14.54 2.13 3.18 3.9 6.79 2.18 10.78-2 4.69-6.14 6.68-10.86 6.33-11.48-.84-22.94-2-34.37-3.36-9.52-1.14-19-2.6-28.46-4.24-6.29-1.08-12.85-1.87-18.64-4.32-9.14-3.88-18.42-4.47-28.1-4.76q-33.57-1-67.1-3.23c-18.57-1.23-37-1.47-55.56.82a199 199 0 0 0-31.85 6.78c-45.78 13.5-88.2 34.1-127.78 60.69-6.9 4.64-13.49 9.73-20.38 14.4a51.94 51.94 0 0 0-18.28 21.77c-7.77 16.85-15.84 33.56-23 50.65a695.21 695.21 0 0 0-33.23 100c-7.53 29.85-7.54 59.59-1.39 89.41 8.14 39.45 16.91 78.77 25.5 118.13 1.09 5 2.61 9.89 4.09 14.78a71.24 71.24 0 0 0 21.69 33.29c30.28 26.82 62.21 51.26 97.75 70.78a356.31 356.31 0 0 0 94.68 36.11c24.52 5.44 49.3 7.27 74.35 7a334.21 334.21 0 0 0 92.56-14.51c53.16-16 99-44.26 139-82.5a419.87 419.87 0 0 0 36.12-39.76c16.92-20.94 26.72-44.94 31-71.31 1.34-8.21 2.46-16.48 3-24.77a320.76 320.76 0 0 1 8.55-54.91 151.64 151.64 0 0 0 4.25-38c-.25-23-.49-46.07-1-69.1a92.35 92.35 0 0 0-9.61-38.84 205.75 205.75 0 0 0-14.26-25c-23.32-34.45-44.77-70.09-66.83-105.34-3.37-5.39-7-10.77-7.43-17.41 0-.73 1.52-2 2.53-2.24a5 5 0 0 1 3.63.57 161.48 161.48 0 0 1 14 10c11.27 9.47 22.52 18.9 34.45 27.58 22.91 16.68 38.43 39 48.39 65.4a229.62 229.62 0 0 1 10.42 38.86c6.48 34.58 13.12 69.13 18.61 103.87 3.59 22.72 6.24 45.69 7.6 68.65 2.18 37-5.09 72.59-19.86 106.58-11.31 26-26.55 49.61-44.77 71.27a454.39 454.39 0 0 1-60 59.34c-27.46 22.48-57.47 40.5-91.58 51.16a49 49 0 0 0-7 3.11c-.36.18-.52 1-.51 1.6s.32 1.29.63 1.36a24.6 24.6 0 0 0 5.62.81c18.55-.62 37.09-1.52 55.64-2q45.09-1.12 90.2-1.76a110.12 110.12 0 0 1 32.2 4.71c16.2 4.67 32.62 6.29 49.34 6q45.11-.88 90.21-1.78 64.3-1.23 128.61-2.43 32.64-.66 65.25-1.67a115.2 115.2 0 0 1 24.79 2.39 59.84 59.84 0 0 1 7.4 2c10.53 3.45 17.41 10.48 20.2 21.26 1.28 4.95 2.31 10 3.24 15 1.34 7.17-1 12.26-7.39 16.16a47.4 47.4 0 0 1-6.83 3.43c-15.5 6.29-31.37 10.61-48.28 11.47-24.27 1.22-48.49 3.53-72.75 5.1-19.79 1.28-39.61 2.2-59.42 3.2a146.87 146.87 0 0 1-36.27-2.68c-7.48-1.49-15.22-1.79-22.86-2.36-3.81-.28-7.67 0-11.51.08a439.71 439.71 0 0 1-95.46-7.87 83 83 0 0 0-20.93-1.34c-23 1.34-46 1.89-69 3.29-29.4 1.79-58.82 2.35-88.27 2.27q-157.4-.45-314.88-.85c-53.76-.24-107.51-1.17-161.26-1.68q-76.8-.75-153.6-1.26c-43.53-.27-87-2.37-130.43-5-29.38-1.76-58.75-3.75-88.17-4.66-17.89-.55-35.83-.37-53.73.17-44.79 1.33-89.42 5.22-134.08 8.64-24.88 1.9-49.81 3.19-74.7 4.86q-12.45.84-24.84 2.27c-14.21 1.63-28.14.91-41.56-4.36a40.19 40.19 0 0 0-15-2.75q-30.7 0-61.42-.53-109.43-1.73-218.84-3.63c-15.33-.27-30.66-1.2-46-2-.75 0-1.5-1.52-2.07-2.44-.12-.2.43-1.11.86-1.32 3.39-1.64 7.69-1.11 10.43-4.29a2.15 2.15 0 0 0 .36-1.6 2.18 2.18 0 0 0-1-1.31 4.06 4.06 0 0 0-1.87-.35q-33.6 0-67.2-.06c-3.85 0-7.94-.13-10.76 3-3.39 3.73-7.52 4.53-12.16 4.11-6.37-.57-12.76-1-19.1-1.83a122.43 122.43 0 0 0-26.79.06c-26.75 2.57-53.54 5-80.44 4.9q-57.6-.27-115.19-1.07c-44.15-.58-88.3-1.46-132.45-2-40.31-.54-80.64-.7-120.95-1.35a1168.31 1168.31 0 0 0-117 3.48c-12.1 1-24.29 1.3-36.44 1.24q-73.92-.41-147.83-1.3c-21.11-.29-42.21-1.39-63.31-2.22a59.66 59.66 0 0 1-11.43-1.18c-15.54-3.73-31-7.71-46.51-11.65-2.43-.62-4.08-4.22-2.78-6.06 6.61-9.41 13.19-18.83 20-28.08a17.39 17.39 0 0 1 13.14-7c3.18-.26 6.38-.47 9.57-.54 48.63-1.12 97.24-2.36 145.87-3.26 37.77-.71 75.43-3.31 113.11-5.72 10.85-.7 21.71-1.29 32.58-1.89 14.69-.8 29.38-1.92 44.09-2.25 15.33-.35 30.71-.34 46 .24 30.06 1.14 60.08 3.68 90.13 4 26.85.27 53.71-1.67 80.57-2.76a12 12 0 0 0 5.27-2c.83-.49 1.27-1.82 1.6-2.86.1-.31-.67-1.21-1.19-1.38-4.85-1.54-9.7-3.15-14.62-4.42-64.7-16.66-123.61-45-175.91-86.82-32.17-25.7-60.3-55.33-85.24-88.06a137.17 137.17 0 0 1-23.15-46 320.19 320.19 0 0 1-7.88-35.57c-2.46-15.14-3.87-30.45-5.81-45.68-2.53-19.78-2.23-39.54-.24-59.37a466.56 466.56 0 0 1 16.38-82.69q13.51-47.06 30.94-92.78a296.63 296.63 0 0 1 26.58-53.09c11.65-18.35 26.95-32 47-41 15.74-7 30.78-15.65 46-23.86 13-7 25.59-14.53 38.5-21.6 32.25-17.69 66.42-29.91 102.87-35.44 7-1 13.94-1.9 21-2.44 51.87-4 102 4.08 150.87 21.44 7.23 2.57 14.33 5.53 21.58 8 38.85 13.28 71.89 36 102.33 62.91 25.46 22.47 43.58 49.79 54.81 82 9.88 28.37 21.17 56.25 31.81 84.36 3.85 10.17 7.82 20.3 11.38 30.57 13.12 37.76 14.61 76.32 7.84 115.49-5.05 29.24-15.13 56.8-27.09 83.75-22 49.58-52.13 93.77-88.65 133.83-38.65 42.39-85.9 70.11-141.14 84.67-6.18 1.63-12.46 2.9-18.57 4.75-1.1.34-1.58 2.73-2.76 4.94l23.63 3.13c38.71 5.11 77.51 8.83 116.56 10.33 72.92 2.8 145.88 3.19 218.8 5.15 36.53 1 72.92.41 109.32-2.09 42.2-2.9 84.41-2.23 126.65-1.1 23.66.64 47.35.64 71 .87 1.74 0 3.47 0 4.82-1.7 1.06-1.31-1.58-3.73-5.17-4.64-1.24-.32-2.51-.5-3.75-.82-14.85-3.84-29.78-7.43-44.55-11.6-34.59-9.77-67.84-22.85-99.16-40.68-51.95-29.57-92.28-70.32-120.2-123.37-21-39.84-37.35-81.37-47.08-125.35-5.67-25.64-9.25-51.61-9.65-78-.24-15.35-1.26-30.69-1.94-46-1.66-37.73-3.36-75.48-1.14-113.22 2.44-41.28 11.72-80.94 30.19-118.19 18.23-36.76 43.8-67.48 76.2-92.55 6.07-4.7 12.29-9.23 18.7-13.44a366.85 366.85 0 0 0 53.64-43.42c5.5-5.34 11.24-10.47 17.2-15.3 39.42-31.92 84.64-49.67 134.95-54.71 16.55-1.66 33.14-2.85 49.71-4.28 5.09-.44 10.26-.54 14.92-3.06zM2146.1 516.1c0-2.55.06-5.11 0-7.67-.13-4.47-.3-8.95-.56-13.41-2.82-49.79-18.45-95.09-47.54-135.66a443.58 443.58 0 0 1-28.91-45.21c-11.44-20.85-28.36-36-50.23-45.52-12.9-5.61-25.61-11.66-38.67-16.85-33.58-13.34-68.28-21.3-104.65-20.59-8.31.16-16.64.39-24.94.1-10.21-.36-20.47-.72-30.59-2a244.06 244.06 0 0 0-38.28-1.92c-36.74 1.11-70.35 11.45-100.16 33.61-33.9 25.19-66.34 52.18-98.87 79.07a68.18 68.18 0 0 0-17.84 22.31c-14.26 28.61-28.35 57.3-40.53 86.87a198 198 0 0 0-15.17 67c-1.11 25.07.82 49.8 7.55 74.1a778.09 778.09 0 0 1 18.55 84.21c1.42 8.83 3.22 17.6 5.15 26.33a59.82 59.82 0 0 0 21.8 35.14c17.59 13.84 34.81 28.21 53 41.14 57.36 40.68 120.84 66.19 190.87 74.61 11.42 1.37 23 3 34.41.77 21.31-4.19 42.6-8.66 63-16.6a433.53 433.53 0 0 0 84.78-44.39C2032.1 762 2070 726 2103.06 684.88a230.27 230.27 0 0 0 18.32-26.88c12.92-21.88 20.12-45.48 19.88-71.14a123.23 123.23 0 0 1 1.29-19.09c2.51-17.17 3.02-34.42 3.55-51.67zM5408.16 2166.16c-1 .71-2.39 1.2-2.94 2.16-12.74 22.25-27.45 43.17-42.81 63.65a325.34 325.34 0 0 1-39.81 44.12 182.37 182.37 0 0 1-32.27 24 113.82 113.82 0 0 1-43.45 14.31 74.56 74.56 0 0 1-22.95-.55c-22.65-4.24-45.48-7.16-68.38-9.66-15.43-1.68-27.68-9.46-37.56-21.08-10.41-12.27-18.55-26-25.39-40.54-9.08-19.25-14.43-39.64-18.12-60.47-2.12-12-3.47-24.05-4.86-36.12-1.26-10.87-3.43-21.51-7.5-31.64-5.32-13.24-7.45-26.92-8.19-41.14-2.39-46-6.07-91.93-10.79-137.77-.08-.79-1.55-2.15-2.15-2a4.12 4.12 0 0 0-2.84 2.09c-1.87 5.42-3.72 10.87-5.08 16.44-5.29 21.74-10.88 43.43-15.45 65.32-6.58 31.56-17.72 61.39-32.16 90.07-4 8-8.35 15.84-12.57 23.74-3.63 6.82-7.84 13.15-13.85 18.21a58 58 0 0 0-17.79 26.9c-8.58 26.53-25.57 46.95-46.09 64.9-18.84 16.47-39.44 30.55-60.67 43.71-9.26 5.74-19.34 9.62-29.9 12.68-35.55 10.29-85.3-9.36-102.92-54a119.23 119.23 0 0 1-4.39-14.68c-5.93-23.58-10.3-47.48-14.78-71.37-5.07-27-10.07-54.06-15.54-81-1.65-8.09-4.76-15.89-7.27-23.8-.53-1.68-3.47-2.08-4.72-.77-.88.93-1.9 1.73-2.68 2.73-21.05 27-37.37 56.49-47.29 89.37-.92 3.06-2.12 6-2.93 9.13-8.95 34.13-26.69 63.51-49 90.35-14.51 17.45-32.28 30.94-52.22 41.61-15.84 8.48-32.55 14.77-49.59 20.47a64.88 64.88 0 0 1-34.05 1.77 119.17 119.17 0 0 1-65.69-37.17 105.18 105.18 0 0 1-26.12-52.59c-5.1-27-10.29-54-15.3-81.06-3-16.35-5.47-32.81-8.83-49.09-2.32-11.25-5.69-22.29-8.84-33.35-.45-1.55-2.34-3.83-3.46-3.78-1.5.07-3.31 1.84-4.27 3.34-9.32 14.56-18.13 29.41-24.82 45.41-12.76 30.53-31.36 57.14-54.62 80.48-10.82 10.87-22 21.5-33.8 31.26-18.73 15.49-38 30.28-57.29 45.13-15.75 12.14-33.73 17.82-53.63 17.75a70.16 70.16 0 0 1-24.38-4.63c-14.31-5.32-25.54-14.14-32.34-28.29-11.35-23.64-22.63-47.31-32.45-71.64-3.59-8.89-7.42-17.69-11.21-26.5-1.12-2.61-4.67-3.22-6.17-1.12-3 4.16-5.94 8.31-8.76 12.57-9.18 13.87-18.45 27.69-27.38 41.72-5.91 9.3-12.82 17.47-22 23.67-7 4.69-12.37 11-17.07 18-4.29 6.36-8.79 12.61-13.62 18.56-7.38 9.1-16.17 16.37-27.91 19.3a32.6 32.6 0 0 0-15 8.16 38.46 38.46 0 0 1-7.83 5.48c-8.42 4.75-17.17 5.11-25.65.43a64.14 64.14 0 0 1-12.38-8.9c-12.22-11.28-24.13-22.91-36.27-34.28a81.08 81.08 0 0 0-9-7c-2.16-1.51-7.17-.84-9 1a34.21 34.21 0 0 0-3.89 4.2c-2.6 3.65-4.89 7.51-7.52 11.13-4.14 5.69-8.2 11.46-12.74 16.82-12.65 15-29 22.7-48.49 23.89-3.83.23-7.68.36-11.51.21-6.39-.24-12.77-.86-19.16-1.09-21.86-.8-42.88-6.69-64.21-10.65a53.56 53.56 0 0 1-27-13.79 134.58 134.58 0 0 1-35-52.11 299.82 299.82 0 0 1-14.89-55.52c-1.5-8.76-1.55-17.84-1.57-26.77 0-18.55 1.09-37.07.71-55.64-.39-18.76 4.54-36.76 9.61-54.61 4.37-15.38 9.25-30.61 14-45.86 6.52-20.82 10.3-42.22 13.47-63.73.15-1-.81-2.26-1.44-3.28s-4.09-.68-5.19.67c-10.94 13.37-22 26.7-30.81 41.59a105.94 105.94 0 0 0-8.23 17.27c-12.69 34.47-30.58 66.15-51.32 96.28q-20.14 29.24-41.29 57.77c-10.05 13.46-18.56 27.55-23.71 43.59a99 99 0 0 1-16.34 30.22c-11.34 14.68-22.3 29.65-33.84 44.17a230.22 230.22 0 0 1-29.27 30.38 175.06 175.06 0 0 1-31.25 22.13c-25.86 14-51.54 28.4-77.37 42.48a241 241 0 0 1-35 15.69c-13.39 4.75-27.06 7.49-41.36 7a29.1 29.1 0 0 1-19.24-7.44 268.61 268.61 0 0 1-31.66-33.38 31.32 31.32 0 0 1-3.62-6.73c-2.76-6.3 1.08-15.4 7.85-17.23a167.78 167.78 0 0 1 22.53-4.46c14-1.76 28-3.1 42-4.34a102.26 102.26 0 0 0 36.79-9.89c20.07-9.9 40.5-19.07 60.72-28.66 6.36-3 12.42-6.65 18.82-9.55 18.13-8.21 31.71-21.3 41.87-38.18 7.58-12.6 15.6-25 22.65-37.87a640.22 640.22 0 0 1 47.35-74.42c8.38-11.3 16.43-22.86 24.4-34.46a371.1 371.1 0 0 0 39-72.49 989.19 989.19 0 0 1 56-117.77c3.14-5.58 6-11.32 9.11-16.89 13.55-24 24.2-49.36 33-75.48 1.64-4.84 3.13-9.76 5.1-14.47 3.94-9.45 12-13.31 21.92-10.09 24.57 8 44.38 22.38 58 44.72 7.74 12.74 12.28 26.67 15.36 41.15.4 1.87.4 3.84.88 5.68 2.86 11.06 1.72 21.45-4.23 31.39a88.34 88.34 0 0 0-6.39 13.94 84.58 84.58 0 0 0-5.71 24.17 306.46 306.46 0 0 1-8.88 52.91 198.22 198.22 0 0 0-6.31 43.61c-.55 21.74-1.3 43.51-.82 65.24a253.47 253.47 0 0 1-7.93 68.38 170 170 0 0 0-3.94 18.74c-1.26 9.22.74 18 6.5 25.38 9.49 12.15 17.55 25.17 25.15 38.53 7 12.31 17.6 20.18 31 24.11 6.1 1.79 12.48 3.37 18.78 3.58 24.77.83 20.84 2.15 36.58-14.55 11.41-12.11 22.51-24.5 33.65-36.86a82.16 82.16 0 0 0 8.31-10.51c1.3-2 1.57-4.76 2-7.23a9.13 9.13 0 0 0-.38-3.79c-3.71-14.14-1.1-28 2.07-41.77 3.74-16.19 8.16-32.22 12.21-48.33a114.63 114.63 0 0 1 15.25-35c4.89-7.49 10.09-14.81 15.61-21.85 10.67-13.59 21.62-27 32.51-40.36a134.09 134.09 0 0 1 26.51-24.91c9.39-6.65 19.08-12.88 28.73-19.15 15.55-10.11 31.29-19.94 46.75-30.19 26.68-17.69 54.19-34 82.17-49.52a89.57 89.57 0 0 1 13.9-6.4 13.82 13.82 0 0 1 14.38 2.76c9.1 8.21 16.81 17.49 22 28.72 5.41 11.59 5.58 23.58 2.46 35.63-2.5 9.65-7.5 17.1-17.73 21-11.31 4.34-22 10.22-33 15.51a652.46 652.46 0 0 0-78.34 44.57c-8.12 5.42-15.52 11.22-19.13 20.77-1.63 4.33-5.09 7.28-8.79 9.91-14 9.94-23.42 23.41-30.5 38.77-.53 1.16-1.22 2.25-1.7 3.44-13.75 34.55-31.61 67.09-49.13 99.78a137 137 0 0 0-12.76 34 33.66 33.66 0 0 0-.54 5.7 6.86 6.86 0 0 0 9.21 6.68 35.14 35.14 0 0 0 5.33-2.1c21.8-12.12 43.61-24.22 65.33-36.49 11.82-6.68 21.8-15.61 30.6-25.92 10.38-12.18 21.06-24.1 31.22-36.45q12.18-14.82 23.41-30.4c17.93-24.81 29.52-52.24 33.21-82.8.39-3.17.7-6.36 1.15-9.53 1.49-10.41 4.73-12.34 13.81-8.56 21.71 9 35 25.09 40.12 48a116.06 116.06 0 0 1 2.78 15.07c1.37 15.3 2.62 30.61 3.47 45.93a297.27 297.27 0 0 1-4.76 70.71c-2.94 15.9-2 31.86-1.18 47.83a20.69 20.69 0 0 0 1.46 5.52c1.65 4.87 6.72 8.54 11.85 8 3.76-.36 7.74-.89 11.09-2.48a206.92 206.92 0 0 0 21.87-11.87c8.11-5.12 15.68-11.07 23.63-16.45 12.17-8.26 24.15-16.86 36.76-24.4 30.34-18.17 54.21-42.66 72.22-72.84 7.2-12.06 13.53-24.68 19.59-37.36 21.82-45.62 40.3-92.63 57.92-140 8.07-21.71 13.91-43.82 16.12-66.94 1.1-11.43 3.82-22.7 3.54-34.29-.05-2.21-1.53-3.35-3.09-4.42a4.25 4.25 0 0 0-1.84-.47c-7-.91-14-1.91-21-2.66-9.14-1-17.84.37-25.77 5.44-11.77 7.53-24.79 9.84-38.55 9.24-9.59-.41-19.19-.52-28.78-.92-6.7-.27-12.66.94-17.12 6.56a34.21 34.21 0 0 1-5.53 5.29c-9 7.14-19.69 7-27.84-1a152.53 152.53 0 0 1-35.26-54.25 5.21 5.21 0 0 1 2.48-6.46c2.87-1.33 5.78-2.88 8.83-3.43a64.5 64.5 0 0 1 11.48-.54q17.27.06 34.55.32a604.64 604.64 0 0 0 69-2.55c24.17-2.39 48.53-2.73 72.81-4 4.42-.22 8.83-.48 11.49-.62 4.35-1.88 5.1-4.46 6.19-6.72 16.72-34.75 29.62-70.77 35.3-109.09 1.31-8.84 2-17.78 2.58-26.71.92-15.32 1.48-30.67 2.18-46 1.21-26.91 6.5-53.32 9.69-80a79.41 79.41 0 0 1 2.58-11.21c1.8-6.61 5.45-9.11 12.74-8.92 1.91 0 3.84.11 5.74.33a339.75 339.75 0 0 1 43.42 7.74 33.68 33.68 0 0 1 3.65 1.17c5.9 2.21 10.48 8.65 9.84 15.09a229.8 229.8 0 0 1-3.52 22.73q-8 39.49-14.69 79.22a187.57 187.57 0 0 0-2.9 36.28c.5 18.07-2.44 35.64-6.35 53.18-4.73 21.22-9 42.54-13.38 63.83a26.92 26.92 0 0 0-.45 7.49 3.74 3.74 0 0 0 2.34 2.67 67.81 67.81 0 0 0 11.27 1.22c23 .17 46.08-.14 69.1.38 13.41.31 26.81 1.65 40.17 2.92 18.54 1.76 36.88 2.19 55.43-1a321 321 0 0 1 63.11-4.29c10.24.27 20.48.35 30.71.38 4.19 0 7.2-2 9-5.94 6.49-14.61 13.52-29 19.49-43.82a228 228 0 0 0 15.68-65q5.7-64 11.69-128c1-10.19 2.23-20.36 3.66-30.49a33 33 0 0 1 2.94-9.05 10.17 10.17 0 0 1 9-6.26c5.09-.21 10.31-.44 15.29.44 14.47 2.56 28.86 5.65 43.27 8.6a19.5 19.5 0 0 1 3.52 1.48c2 .83 2.95 4.76 1.54 6.69-1.88 2.57-4 5-5.83 7.57a37 37 0 0 0-6.71 29.07c1.42 8.18 3.84 16.31 4.12 24.51.26 7.57-1.91 15.19-2.72 22.82-2.7 25.44-4.71 51-8.1 76.32-2.2 16.43-6.21 32.64-9.67 48.89-2.13 10-5.09 19.83-7.08 29.86-1.87 9.45-2.34 19.06.49 28.5a6.6 6.6 0 0 0 5.27 5 44.13 44.13 0 0 0 7.61.69c28.79-.14 57.6.3 86.36-.76 19.76-.72 36.39 5.42 51.14 17.86 1.25 1.06 1.55 3.27 2.28 4.93-7.93 6.48-16.32 10.52-26.55 10-7.87-.41-15.11 2.41-22.27 5.2-4.76 1.85-9.36 4.12-14 6.26a90.86 90.86 0 0 1-29.36 8.25c-14.68 1.47-29.05 4.79-42.55 11a151.23 151.23 0 0 0-16.91 9 37.32 37.32 0 0 0-17.94 28.17 161.65 161.65 0 0 0-1.21 24.88c.51 16.62 1.67 33.23 2.56 49.84.51 9.58 1 19.16 1.53 28.74a102.08 102.08 0 0 1-5.22 37.81 382 382 0 0 0-12.85 50.14 51.35 51.35 0 0 1-2.23 9.31c-8.7 22.29-7.83 45.11-4 68.1 2.53 15.13 5.37 30.22 7.88 45.36 1.88 11.36 3.25 22.8 5.24 34.14a127.3 127.3 0 0 0 4.71 18.55 40 40 0 0 0 11.4 17.5 32.83 32.83 0 0 0 15.09 8c13.59 2.79 26.44 1.7 38.82-5.69 23.18-13.83 41.42-32 52.61-56.78 6.62-14.65 15.17-28.13 24.49-41.17 4.84-6.76 9.64-13.56 14.64-20.2 17.43-23.17 30.68-48.54 41.35-75.48 12.24-30.92 25.46-61.44 38.18-92.16 7.09-17.14 13.81-34.43 21.05-51.5 10.35-24.39 15.7-49.91 18.37-76.15 1.69-16.54 2.82-33.18 7.2-49.32 1.33-4.93 2.82-9.84 4.58-14.63 1.87-5.11 6.73-8.54 11.83-8.1 16.24 1.39 31.43 5.79 44 16.81a45.08 45.08 0 0 1 13.5 20.63c4.41 14 8.75 28 12 42.43a40 40 0 0 1-2.17 24.36c-2.59 6.54-5.2 13.07-8 19.51a17.92 17.92 0 0 0-.33 14.78c7.67 19.12 11.63 39.13 14 59.56 2.74 23.51 7.33 46.75 11.79 70 6.9 36 9.7 72.28 7.24 108.86-1.47 21.95 4.06 41.71 16.06 60 7.37 11.22 14.31 22.73 21.28 34.21 4.66 7.66 9.44 15.21 15.5 21.88 8.63 9.52 19.31 12.11 31.41 9a94.72 94.72 0 0 0 14.35-5.37 341.11 341.11 0 0 0 79.9-49c12.42-10.22 23-22.21 32.47-35.18q6.78-9.3 13.36-18.76c7.84-11.23 17.95-18.06 32.25-17a23.58 23.58 0 0 0 3.82-.34zm-1041.3-43.77c.32 2.8.79 9.82 1.93 16.73q5 30.26 10.38 60.42c2.35 13.2 4.67 26.43 7.56 39.51 2.76 12.44 10 22 21 28.51 12.63 7.49 25.13 8.19 37.82-.29 15.41-10.31 30.67-20.79 44.85-32.79a179.53 179.53 0 0 0 40.48-48.2q8.55-15 16.43-30.34c8.16-15.93 17-31.47 26.18-46.82s17.92-31 26-46.94c10.36-20.52 19.83-41.5 29.73-62.25a370.41 370.41 0 0 0 26.44-75.86c6.63-28.61 12.76-57.34 19.09-86 .28-1.25.45-2.52.65-3.78.1-.63.13-1.27.22-1.9.46-3.42-1.77-6.74-4.92-6.83-12.77-.38-25.55-.87-38.32-.87-10.22 0-20.45.41-30.64 1.11-11.47.8-22.92 2-34.34 3.28-26.85 3.1-53.57 2.15-80.26-1.86a79.71 79.71 0 0 0-17.17-.91c-27.18 1.92-50.23 13.79-71 30.66a23.69 23.69 0 0 0-8.85 18.45c-.08 3.83-.24 7.67-.16 11.5.36 16.61.87 33.22 1.18 49.84q.39 21.07.44 42.17a130.81 130.81 0 0 1-4.91 36c-2.62 9.21-5.68 18.47-6.75 27.91-1.95 17.23-6.25 33.92-10.13 50.7-1.89 8.12-2.79 16.3-2.93 28.85zM3883.68 3156.88c-1.4-1.19-2.6-2.9-4.22-3.48-7.8-2.84-15.73-5.32-23.58-8a4.63 4.63 0 0 1-2.79-6.21c6.18-13.76 7.17-28.28 7.35-43.13.27-22.39 1.49-44.76 2-67.14 1-40.93 1.73-81.87 2.53-122.81.05-2.44.33-5.09-1.78-7-.43-.4-1.46-.82-1.73-.61a17.86 17.86 0 0 0-4.12 3.81c-7.05 10.67-13.72 21.61-21 32.14-11.24 16.32-22.6 32.58-34.44 48.48-5.7 7.67-12.4 14.63-19 21.56a24.64 24.64 0 0 1-19.06 7.63 70.57 70.57 0 0 1-15.16-1.85c-9.7-2.5-17.28-8.13-22-17.19-3.86-7.41-7.07-15.07-8.25-23.41-1.43-10.13-2.76-20.27-4.08-30.41-1-7.61-1.79-15.25-2.93-22.83a11.55 11.55 0 0 0-2.42-4.75c-.69-.95-4 2.25-5 5.25a134.22 134.22 0 0 0-4.23 14.73 78.55 78.55 0 0 1-12.61 29.83 261.1 261.1 0 0 1-17.68 22.67c-9 10.41-20.94 16.68-33.37 22-4.93 2.1-10.05 1.36-14.82-1.21-9.46-5.11-16-12.42-18.39-23.24-2.19-10-4.7-19.91-7.23-29.81a42.88 42.88 0 0 0-2.91-7 2.1 2.1 0 0 0-1.47-1.12c-1.1 0-2.75 0-3.19.71-2.46 3.72-4.72 7.58-6.86 11.5-1.83 3.36-3.15 7-5.15 10.27a23.49 23.49 0 0 1-17 11.31c-9.63 1.59-19.12.9-28.62-.81-6.9-1.25-11.43-5.42-14.18-11.65-.76-1.73-.85-3.75-1.54-5.52-.92-2.34-1.6-5.15-3.32-6.73-9.19-8.4-14.49-19.4-20.65-29.84-1.61-2.73-3.51-5.29-5.35-7.87-1.27-1.78-5.4-1.45-6.56.62-1.85 3.32-4.23 6.56-5.12 10.15q-5 20.47-9.16 41.17c-2.28 11.31-2.59 22.86-3 34.38a58.63 58.63 0 0 1-1.09 7.53c-.22 1.33-3.32 2.28-4.85 1.61-7.68-3.36-12-9.47-13.29-17.48a74.46 74.46 0 0 1-.57-15.3c.49-9.58 1.52-19.13 2.19-28.7s1.31-19.14 1.69-28.72a43.4 43.4 0 0 0-5.36-22c-2.4.44-4.47.36-6.07 1.18-19.54 10.05-34.07 24.83-41.4 45.8-5.7 16.28-10.74 32.8-16 49.24-2.53 7.92-4.77 15.93-7.29 23.85a106.31 106.31 0 0 1-4.11 10.73c-4.27 9.6-11.94 14.68-22.2 16-1.13.14-2.38-.65-3.88-1.1.84-1.67 1.32-3.61 2.51-4.88 13.91-14.93 21.52-33.09 27.07-52.33 2.65-9.22 4.84-18.58 7.89-27.66 3.46-10.29 7.42-20.43 11.59-30.45a81 81 0 0 1 13.24-21 63.14 63.14 0 0 1 26.59-18.28 31.93 31.93 0 0 1 7.46-1.62c10-1.13 17.39 2.79 21.88 11.93 2.17 4.41 3.75 9.1 5.78 14.13 2-1.21 3.86-1.9 5.17-3.12 3.74-3.46 7-7.5 11-10.66 6.71-5.34 17.26-3.6 22.14 3.35a59.48 59.48 0 0 1 4.86 8.25c2.57 5.29 5.76 9.79 11.16 12.69 3.54 1.9 5.14 5.62 5.87 9.5.94 5 1.45 10.14 2.55 15.13a24.21 24.21 0 0 0 21.59 18.91c4 .42 7.61-.84 11-2.78a24.28 24.28 0 0 0 9.18-9.6 131.55 131.55 0 0 0 5.83-12.08q12.57-30.09 24.93-60.27c1.2-2.91 2.34-6 1.2-9.23-12.71-2-22.15-1.73-32 1.07-3.08.88-6.08 2-9.15 2.9a11 11 0 0 1-9.25-1 24.81 24.81 0 0 1-5.41-5.23c-1.6-1.95-1.57-3.35-1-9.45 12.49-2 25.09-3.87 37.87-4.64a59.85 59.85 0 0 0 13.2-2.08 19.59 19.59 0 0 0 13.35-12.74c2.21-6.1 2.9-12.4 3.4-18.81.93-12.11 2.12-24.2 3.36-36.28a43.18 43.18 0 0 1 1.88-7.4c.57-2 3.74-4 6.07-3.8 2.55.19 5.1.43 7.61.87 3.53.63 5.87 3.41 5.53 6.68-.94 8.91-1.87 17.82-3.07 26.69-1.55 11.4-3.39 22.77-5 34.16a39.07 39.07 0 0 0-.16 5.73c0 3.64 3.33 7.64 7 7.94 4.44.37 8.91.27 13.37.37 6.36.15 12.82-.82 19 1.45a2 2 0 0 1 1 1.57c0 1.12 0 2.79-.65 3.25-5.88 4.1-13 5.16-19.6 7.33-4.25 1.39-8.67 2.2-13 3.46a19.31 19.31 0 0 0-5.21 2.36c-3.3 2.18-5.89 5-6.15 9.21a53.54 53.54 0 0 0 .07 9.56 62.84 62.84 0 0 1-1.19 22.89c-3 12-3.2 24.07-3 36.23.11 8.95.3 17.92 1.07 26.82.32 3.7 2 7.35 3.53 10.83 1.31 3.06 6.72 5 9.93 4.23a41.78 41.78 0 0 0 15.25-7.8 103.1 103.1 0 0 0 25.55-28.36 209 209 0 0 0 21.61-49c4.25-14.07 7.76-28.37 11.79-42.5a42.78 42.78 0 0 1 3.89-8.66c1.37-2.52 6-2.84 8.53-1.22 4.54 2.92 7.21 7.26 9.21 12a62.4 62.4 0 0 1 4.8 20.46c1.11 16.6 2.82 33.17 3.34 49.78.59 19.1 7 36.23 15.53 52.88a7.59 7.59 0 0 0 8 4.13c3.09-.3 6.67-.67 9-2.39 12.49-9 24-19.16 33-31.86 5.88-8.37 11.39-17 17-25.57 9.46-14.45 18.65-29.07 28.35-43.36a94.9 94.9 0 0 0 16.46-48.42c.39-6.37.75-12.77 1.65-19.09 1.17-8.21 5.72-14.09 13.6-17.14a86.56 86.56 0 0 1 8.91-3.16c.74-.19 2.42.9 2.73 1.74a14.59 14.59 0 0 1 .83 5.59c-1 16-2.24 31.9-3.28 47.86-.58 8.93-1 17.87-1.31 26.81 0 1 1 2.08 1.64 3s3.7.46 5.14-1.08c2.62-2.79 5-5.84 7.8-8.43 11.23-10.39 27.28-12.2 41-4.88 7.84 4.19 12.45 10.93 14.8 19.2a134.51 134.51 0 0 1 5.15 36c.05 8.32-.19 16.63-.13 24.95a13.33 13.33 0 0 0 1.26 5.49 3.65 3.65 0 0 0 3.05 1.55 16.74 16.74 0 0 0 5.32-2c18-9.87 35.15-21.05 50.38-34.88 17.11-15.53 35.94-28.79 54.55-42.35 1-.75 2.07-1.5 3.15-2.19 5.69-3.63 10.48-3.4 13.75.62 5.24 6.45 5.62 14.8.7 19.1a61.89 61.89 0 0 1-7.67 5.69c-6.48 4.11-13.13 7.95-19.59 12.08a72.3 72.3 0 0 0-26.55 29.67c-3.9 8-7.3 16.34-10.61 24.65-.57 1.43.45 3.5.85 6 21.49-7.77 36.31-22 46.19-41.58 2.58-5.12 4.45-10.6 6.7-15.89.84-2 4.76-3 6.69-1.92 3.56 1.89 6.2 4.64 7.19 8.5a55.22 55.22 0 0 1 1.83 11.32c.48 12.14.59 24.3 1 36.45a28.32 28.32 0 0 0 1.24 7.43c.26.82 2.3 1.9 3 1.61a28.39 28.39 0 0 0 6.45-4 206.12 206.12 0 0 0 38.54-42.52c2.91-4.21 5.79-8.46 8.33-12.89 13.06-22.74 26.17-45.45 38.91-68.36 7.51-13.51 13.09-27.77 13.93-43.5a44.17 44.17 0 0 1 1-5.65c.46-2.49 3.4-4.51 5.7-3.66 4.17 1.55 8.47 2.93 12.32 5.08 5.16 2.88 8.56 7.46 10.74 13.06 3.85 9.9 3.6 20 2.29 30.28-.89 7-2.07 13.91-2.69 20.9a43 43 0 0 0 4.68 24.17c9.69 18.54 12.57 38.8 14.63 59.22a87 87 0 0 1 0 17.23 44.66 44.66 0 0 1-42.06 40.15c-14.59.85-27.72-4.08-40.1-11.11-5.91-3.35-8.95-9.2-9.35-15.93a60.25 60.25 0 0 1 10.23-38.23c6.44-9.52 15.72-14.75 27-16.58a13.87 13.87 0 0 1 15.95 10.5c2.49 9.37 3.9 18.77 1.26 28.4a18.38 18.38 0 0 1-16.85 13.35c-9.35.56-15.38-5.36-15.37-15.29a3.61 3.61 0 0 1 1.74-2.8c.93-.35 2.37.17 3.41.68a27.27 27.27 0 0 1 3 2.31 4.86 4.86 0 0 0 6.67-1.29c1.38-2.11 3.06-4.32 3.49-6.69 1.6-8.83-1.26-16.21-8.32-22.62-3.88 2.78-7.52 5.26-11 7.92-6 4.56-8.9 10.8-9.06 18.23-.22 10.35 1.29 20.4 5.76 29.87a12.66 12.66 0 0 0 8.44 7.27c10.18 2.47 20.3 2.11 30.09-2 6.25-2.63 10.43-6.91 12.12-13.78 4.64-19 5.4-37.83.69-56.95-5.52-22.4-13.14-44.11-20.7-65.84-1.23-3.55-4.9-4.1-7.44-1.27a49.86 49.86 0 0 0-3.77 4.34c-4.44 6.26-9.18 12.35-13.06 18.94-7.45 12.67-14.82 25.43-21.43 38.55a165.47 165.47 0 0 1-29.91 42q-10.11 10.24-20.44 20.28a62.41 62.41 0 0 1-7.42 6c-5 3.53-11.11 2.85-15.87-1.29-3.47-3-5.77-6.77-7.85-10.76q-4.85-9.35-9.86-18.6a3.56 3.56 0 0 0-4.95-.9c-1.87 1.72-3.81 3.4-5.55 5.25-7 7.44-13.94 15-21 22.39a61.65 61.65 0 0 1-7.14 6.37c-4.49 3.41-11.4 3.33-16.21 0-8.95-6.19-14.18-14.67-14.91-25.57-.38-5.69-.07-11.43-.07-17-1.92 0-3.5-.49-4.29.09a91 91 0 0 0-7.21 6.28 23.28 23.28 0 0 1-11.75 6c-13.12 2.37-23.57 9.47-32.57 19-5.27 5.58-10.46 11.24-15.84 16.71-12.23 12.45-25 5-29.83-5.1-2.2-4.58-4.69-9.14-4.67-14.41a4.14 4.14 0 0 1 1.75-3.09 3.69 3.69 0 0 1 3.44.22 28.17 28.17 0 0 1 4.81 5.8c2.34 3.77 4.26 7.8 6.64 11.54.44.69 2.78 1.16 3.31.69 12-10.64 18.73-24.1 20.62-39.92 2.84-23.86-3.64-45.6-15.67-65.95a12.94 12.94 0 0 0-7.38-5.82c-3.19-1-6.52-1.26-9.13 1a137.22 137.22 0 0 0-21 22.3 39.66 39.66 0 0 0-7.76 28.92 12 12 0 0 0 .21 1.9c4.46 16.43 2.33 33 1.6 49.63-1 22.37-1.59 44.76-2.05 67.14-.5 24.39 3 48.48 5.77 72.63.94 8.24 1.34 16.55 2 24.82zM1249.44 3156.88c-2.07-2.79-5.35-3.18-8.29-4.36-7.08-2.85-15-3.4-21.32-8-2.48-4.43-1.26-8.91-.68-13.28 1.17-8.87 2.69-17.7 3.82-26.57 2.19-17.18 2.2-34.47 2.24-51.74.1-42.23-.28-84.45 1.45-126.66.16-3.83.07-7.68.06-11.52 0-12.33-.48-14.81-2.75-13.88-4.61 1.89-6 6.39-8 10.11a202.18 202.18 0 0 1-32 43c-12 12.42-24.28 24.57-36.52 36.75a63.5 63.5 0 0 1-7.39 6.1 12.37 12.37 0 0 1-17.13-2.7 96.74 96.74 0 0 1-7.16-11.31c-3.41-6.1-5.94-12.72-10.28-18a7.8 7.8 0 0 0-7.09 2.84c-8.26 8.91-16.49 17.86-24.92 26.61a46.57 46.57 0 0 1-8.88 7.21 8.94 8.94 0 0 1-9.16.12c-14.79-7.93-24.32-28-19.44-46.14 2.2-8.14 5.56-15.77 11.4-21.91 6.16-6.47 12.37-13 19.32-18.58 12.48-10 25.48-19.32 38.36-28.8a34.2 34.2 0 0 1 6.85-3.33c2.28-1 7.08.31 8.84 2.36a20.84 20.84 0 0 1 5 10.18c.61 3.57-1.16 8.41-4.17 10.1a74.7 74.7 0 0 1-10.32 5c-17 6.29-29.27 17.91-38.44 33.18a216.9 216.9 0 0 0-15.8 32.79c-.89 2.28-.57 5.06.71 5.24a12.89 12.89 0 0 0 5.36 0c11.55-3.34 20.35-10.73 27.3-20.15 4.91-6.67 9-14 13.15-21.14 2.89-5 5.3-10.22 8-15.28 1.37-2.54 6-2.64 8.37-.41 3.36 3.16 5.88 6.81 6.28 11.5.43 5.1.69 10.21.82 15.33.28 11.49.43 23 .67 34.5 0 1.66 2.67 3.3 4.17 2.73a16.48 16.48 0 0 0 1.84-.47c7.94-4.3 15.16-9.46 20.63-16.83 3.82-5.13 7.92-10 11.82-15.12 14.41-18.78 28.62-37.72 43.26-56.31 10.6-13.48 17-28.45 18.42-45.53.63-7.65 1.1-15.31 1.73-23 .75-9.1 5.33-15.75 13.64-19.32 4-1.7 7.53-5 12.8-4.33 1.65 7.79.29 15.39-.18 23-1.15 18.51-2.53 37-3.72 55.52a25.86 25.86 0 0 0 .61 5.65c.08.52.57 1.31 1 1.38 1.12.19 2.73.57 3.39 0 3.36-2.93 6.42-6.22 9.71-9.24a36.49 36.49 0 0 1 16.74-8.89c13.55-3.15 27.88 3.25 33.59 16a74.72 74.72 0 0 1 5.43 18.3c2.58 15.77 4.51 31.64 6.72 47.47.44 3.15.94 6.28 1.4 9.29 1.64.24 3.13 1 4 .5a82 82 0 0 0 9.67-6.16c29.64-22.31 59.21-44.73 88.88-67a164 164 0 0 1 15.94-10.55c4.48-2.61 10.54 1.3 11.26 6.65a20.29 20.29 0 0 1-7.11 18.88 107.28 107.28 0 0 1-10.88 7.84c-4.77 3.22-9.68 6.23-14.44 9.47a62.63 62.63 0 0 0-17.36 17.69 131.77 131.77 0 0 0-15.09 33 4.25 4.25 0 0 0 .87 3.46 3.87 3.87 0 0 0 3.19.78 21.28 21.28 0 0 0 5.34-2q28.26-15 39.94-44.84c1.38-3.57 2.87-7.09 4.37-10.61.64-1.51 3.45-1.59 4.9-.34 6.73 5.78 9.81 13.4 10.18 22 .36 8.29-.13 16.62-.15 24.93 0 6.37-.75 12.85 1.61 19 .31.81 2.12 1.44 3.23 1.43a5.43 5.43 0 0 0 3.37-1.44c3.71-3.52 7.38-7.09 10.87-10.83 39.82-42.71 69-91.85 88.61-146.8 2.35-6.61 4.8-13.19 7.28-19.75.89-2.36 3.94-3.55 6.36-3 18.69 4.34 25.18 21.69 23.48 34.68-1.4 10.77-2.62 21.57-3.77 32.37a47.58 47.58 0 0 0 3.3 22.46c8 21 12.21 43 16 65.07a55.77 55.77 0 0 1 .46 7.66c1.11 33.34-31.62 55-60.06 45.61-7.9-2.6-15.83-5.14-22.92-9.64-5.16-3.27-8.63-7.72-8.74-14a147.27 147.27 0 0 1 .43-19.15 38.65 38.65 0 0 1 15.83-27.44 57.93 57.93 0 0 1 20.66-9.83c4.77-1.22 9 .52 12.06 4.08a20.56 20.56 0 0 1 4.33 8.38 70.33 70.33 0 0 1 .87 26.7c-1 6.48-7.37 13.22-13.88 14.31a10.62 10.62 0 0 1-5.56-.85 30.81 30.81 0 0 1-6.55-3.9c-3.55-2.69-6.92-5.63-10.24-8.35-4.8 1.85-5.28 6-4.69 9.52a47.18 47.18 0 0 0 4.38 12.55 13.63 13.63 0 0 0 5.16 5.49c19.63 11.58 45.92 2.46 49.36-23.25a69.76 69.76 0 0 0-.82-21c-2.65-15.1-5.89-30.12-9.37-45.06-4.06-17.41-8.64-34.7-13.1-52.45-2.29.23-4.75-.27-5.66.69a136.34 136.34 0 0 0-20.28 27.84c-5.28 9.5-10.5 19-15.54 28.67-15 28.76-36.53 52.34-59.7 74.58a30.53 30.53 0 0 1-4.63 3.38c-3.45 2.25-9.22 1.73-12.69-.74-4.33-3.09-7-7.44-9.46-11.91-3.42-6.13-6.64-12.36-10.16-18.43a3.53 3.53 0 0 0-3.29-.87 29.44 29.44 0 0 0-6.24 4.26c-9.54 8.53-18.93 17.22-28.48 25.74-2.81 2.5-6 4.64-8.84 6.85-14.31-4.61-21.27-14.45-23.24-28.28-.71-5-1-10.08-1.6-15.11a2 2 0 0 0-2.94-1.6 39.42 39.42 0 0 0-6.84 3.09c-9.73 6.16-19.2 12.69-30.65 15.52-4.47 1.11-7.83 4.28-10.7 7.8-3.63 4.46-7 9.15-10.68 13.56a40 40 0 0 1-15 11.62c-10 4.21-23.71-2.24-26.17-12.62-.87-3.69-.91-7.58-1.23-11.39-.17-2.17 1.63-4.16 3.24-3.7 1.17.34 2.82.52 3.34 1.35a93.36 93.36 0 0 1 5.47 10.08c1.37 2.9 2.48 5.9 5.55 8.06 6.14-2.44 9.2-8.27 13.11-13.1 4.08-5 6.14-11.12 7.9-17.33 4.31-15.23 3.44-30.44-.44-45.5a117.23 117.23 0 0 0-14.5-33.3 29.29 29.29 0 0 0-2.4-3c-2.39-2.83-7.57-3.59-10.48-1.58a19 19 0 0 0-3.15 2.15c-6.17 6.49-12.33 13-18.36 19.6a39.46 39.46 0 0 0-10.56 26.13c-.25 8.3-.33 16.64.11 24.93 2.07 38.35 3.09 76.71 2.09 115.11-.15 5.75 0 11.52-.1 17.27-.37 16.77 2.57 33.1 6.09 49.39 1.08 4.95 1.41 10.07 2.08 15.11zm324.33-195.69c-.89-4.37-1.61-8.72-2.66-13-1.13-4.55-5-6.05-8.5-3.31-3.95 3.13-7.83 6.35-11.56 9.73a21.7 21.7 0 0 0-3.25 4.59c-1 1.63-.55 5.49.94 7.13s3 1.44 4.9.59a4.86 4.86 0 0 1 6.48 1.92 50.42 50.42 0 0 0 3.32 4.58c2.28 2.67 6.51 2 7.47-1.25 1.09-3.58 1.9-7.25 2.86-10.98zM2609.73 2140.26c-.31 3.35-.85 6.47-.85 9.59q-.06 54.72.06 109.43a135.74 135.74 0 0 0 2.55 26.69c5.09 25 18.07 44.85 38 60.38 12.71 9.92 26.93 17.19 41.93 23 2.38.92 4.84 1.64 7.24 2.54 22.44 8.38 45 9 67.61.83 14.43-5.23 28.73-10.79 43.07-16.26a35.43 35.43 0 0 0 16.41-12.76c11.58-16.11 23.5-32 34.9-48.2 10.72-15.27 18.58-32 24.54-49.74a108.25 108.25 0 0 0 5.7-43.45 556.52 556.52 0 0 1-1.6-65.21 163.83 163.83 0 0 0-2.51-34.41c-2-11.33-3.3-22.8-4.36-34.26a193 193 0 0 1 1.28-47.82c3.55-22.74 5.88-45.67 8.7-68.52q3.18-25.71 6.26-51.44a48.23 48.23 0 0 0 .82-7.61c-.25-6.76-2.52-12.48-9-15.76a90 90 0 0 1-10.06-5.55c-4.5-3.07-7-7.52-6.6-13.07a59.84 59.84 0 0 1 1.89-11.29c4.95-17.93 7.79-36.21 10.16-54.65 3.42-26.65 6.61-53.33 8.78-80.11 1.18-14.67 2.06-29.36 2.88-44.06.4-7.27 2.08-13.84 7.57-19.08 3.09-3 3.19-6.8 2.32-10.71-.69-3.12-1.8-6.17-2.23-9.33-1.45-10.56-5.28-19.63-14.32-26.1-3.33-2.39-4.2-6.2-3.45-10.34 3.41-18.9 7.08-37.73 15.75-55.12a46 46 0 0 0 5.11-20.26c.14-11.62 3.13-22.79 6.2-33.89 3.25-11.71 6.8-23.33 10.28-35 3.85-12.9 7-25.92 7.65-39.45.18-3.83 1-7.63 1.19-11.46a37.28 37.28 0 0 1 5.91-18c6.29-9.9 9.45-20.85 11.38-32.34 1.49-8.82 3.74-17.51 5.74-26.24 1.2-5.21 3.73-9.48 9-11.61a26.12 26.12 0 0 0 5.1-2.62 14.49 14.49 0 0 0 6.56-11.18 45.48 45.48 0 0 0-.15-9.55c-1.58-11.31 1.33-21.71 6.76-31.34 5.64-10 12.07-19.58 18.09-29.39 2.33-3.78 4.59-7.63 6.58-11.6.33-.65-.77-2.15-1.42-3.11a2.59 2.59 0 0 0-1.7-.79c-21.6-2.74-43.32-4-65.06-5-4.09-.2-7.51 1-9.29 5.18a2.75 2.75 0 0 1-1.48 1.17 2 2 0 0 1-1.56-.1c-3.43-2.22-7.17-2.42-11.08-2q-37.18 4.17-74.37 8.33c-3.06.35-4.55 2.22-4.25 5.13.19 1.91.67 3.78 1 5.67a6.87 6.87 0 0 1-2.45 6.81 23.7 23.7 0 0 1-3.15 2.16q-36.94 22.35-73.92 44.66c-4.93 3-10.15 5.45-15.12 8.36-20.11 11.78-41.89 18.83-64.67 23.28-13.17 2.57-26.24 5.7-39.34 8.63-1.86.42-3.65 1.19-5.47 1.78-5.17 1.69-8.94 4.86-10.67 10.15-.4 1.21-.67 2.47-1 3.7-1.07 4.09-4 6.51-7.68 8-5.34 2.13-10.78 4-16.2 5.94a174.08 174.08 0 0 0-34.59 16.45 151.78 151.78 0 0 0-24.11 18.94c-17.35 16.54-26.71 37.19-31.46 60.26a14.71 14.71 0 0 0 2.18 11c2.71 4.34 5.8 8.47 8.12 13a11.68 11.68 0 0 1 .86 7.35c-1.11 5-3 9.77-4.52 14.65-8.53 27.41-9.85 55.27-5.16 83.49.21 1.26.48 2.52.76 3.77 3.72 16.27 6 32.68 5.2 49.44a70.47 70.47 0 0 0 .38 7.67 14.63 14.63 0 0 0 4.74 10.17c3.28 3 6.76 5.86 10.17 8.77 9.75 8.28 19.6 16.46 29.2 24.91a24 24 0 0 0 11.75 6c2.52.46 5 1.17 7.51 1.59 24 3.94 48 7.59 72 11.81 23 4.06 44.33 0 65.13-10.21 23.26-11.46 43.2-27.32 62.17-44.59 5.71-5.2 6.92-11.84 4.33-19.33-12.15-35-24.41-70-37.91-104.61-2.76-7.08-6.75-12.2-14.55-13.72-3.13-.6-6.15-1.71-9.25-2.49-2.18-.55-5.17 1.18-6.16 3.42-.26.59-.58 1.16-.78 1.76-8.53 24.79-17.12 49.56-25.5 74.4a42.34 42.34 0 0 0-2 11.29c-.28 5.46 1.83 10 6.88 12.75 3.37 1.81 7.06 3.11 10.22 5.22a34.42 34.42 0 0 1 6.8 6.58 3.35 3.35 0 0 1-.31 3.27 24.56 24.56 0 0 1-6.2 4.22c-8.16 3.62-16.44 7-24.67 10.45-9.17-.08-17.29-4.23-25.84-6.71-5.52-1.6-11-3.41-16.45-5.21-1.86-.61-3.67-4.26-3.33-6.34.1-.63.13-1.28.29-1.9 5.28-20.43 10.24-41 16-61.24 2.6-9.18 6.46-18.06 10.29-26.83 7.56-17.3 19.15-31.7 33.23-44.12a108.51 108.51 0 0 1 10.69-8.12c16.79-11.43 34.42-12.6 52.76-4 15.21 7.09 28.6 17 41.44 27.56a40.83 40.83 0 0 1 12.65 19c2.59 7.87 4.86 15.89 6.71 24 2.14 9.35 3.47 18.87 5.5 28.25a413.66 413.66 0 0 0 14.9 53.56 88.67 88.67 0 0 1 4.19 16.67 50.14 50.14 0 0 1-6.36 33.29 72.46 72.46 0 0 1-6.25 9.66c-10 12.45-20.1 24.89-30.49 37a93.63 93.63 0 0 1-12.65 11.7 60.63 60.63 0 0 1-24 11.67c-5 1.19-10 2.31-14.92 3.58a101 101 0 0 0-43.5 23.41q-2.13 1.93-4.17 4a54.94 54.94 0 0 1-34 16.07c-3.18.32-6.34.87-9.53 1.19-10.83 1.07-21.51 2.8-30.73 6.87-3.79-.54-5.39-2.52-6.95-4.57-4.91-6.52-11.86-9.55-19.54-11.16-3.12-.65-6.41-.56-9.5-1.3-6.83-1.64-13.78-3-20.31-5.53a336.68 336.68 0 0 1-41.78-19.3 195.05 195.05 0 0 1-44.66-32.91c-7.25-7.23-14.44-14.56-22.16-21.27-17.88-15.54-26.51-35.64-29.85-58.49-1-7-1.53-14-2.66-21-3.08-19 .75-36.91 8.83-54.07 2.45-5.2 5.39-10.17 8.1-15.25 10.07-18.94 15.88-39.09 16.36-60.56.28-12.15.48-24.37-.61-36.44a65.71 65.71 0 0 1 8.13-38.78c4.65-8.39 9.27-16.82 14.47-24.86a260.41 260.41 0 0 1 15.78-21.79q89.25-111.15 218.19-172c25-11.87 51.48-19.28 78.71-23.91 14.49-2.47 29.11-4.24 43.62-6.62 27.14-4.46 54.33-8.67 81.33-13.86 25.82-5 51.91-7.37 78-9.89 15.92-1.54 31.87-2.86 47.81-4.18a64.61 64.61 0 0 0 32.23-11.19c13.66-9.49 27.71-18.48 40.87-28.63 11.48-8.86 24.25-14.06 38.12-17.13 25.88-5.74 52-6 78.3-3.56a29.55 29.55 0 0 1 22.49 13 62.13 62.13 0 0 1 8.13 15.1 257.74 257.74 0 0 0 10.86 26.62c2.29 4.87 1.57 7.93-2.57 12-3.65 3.58-7.44 7-11.2 10.49-1.35 1.24-4 1.34-5.17.18-3.1-3.22-6-6.65-9.25-9.7-5.58-5.26-11-10.8-17.12-15.31a52.21 52.21 0 0 0-39.95-9.87 332.07 332.07 0 0 0-33.83 6.82c-13.05 3.43-25.4 8.73-35.65 18a3.78 3.78 0 0 0 1.17 6.13c2.36 1 4.75 1.85 7.15 2.69a313.33 313.33 0 0 1 67 32.88 776.62 776.62 0 0 1 107.76 83.2c15 13.9 29.42 28.49 44.31 42.55a108.41 108.41 0 0 1 23.31 32.6c7.16 15 14 30.16 21 45.27 6.13 13.37 11.89 26.92 18.32 40.14a113.55 113.55 0 0 1 11.44 42.34c.91 13.54 3.31 26.69 8.32 39.26 6.24 15.66 8.14 32.23 10.24 48.69 2.44 19 3.93 38.18 6 57.26a23.42 23.42 0 0 1-2.86 14.76c-4.13 7.22-8.05 14.56-12.26 21.73-10.39 17.66-20.63 35.3-25.37 55.62-2 8.7-8.27 14.23-17.46 15.79-1.89.32-3.76.75-5.62 1.23a33.47 33.47 0 0 0-20.84 15.87 139.05 139.05 0 0 0-8.68 17.08c-5.9 13.94-15.13 25.15-27 34.29-5.06 3.9-10.28 7.61-15.5 11.32-8.87 6.29-17.8 12.51-26.7 18.76-9.52 6.69-17.9 14.37-23.5 24.86-3.66 6.86-8.61 12.66-16.17 15.75a11.84 11.84 0 0 0-6.5 6.72c-5.52 13.48-16.61 20.82-29.43 25.86-17.85 7-35.86 13.65-53.85 20.31-8.39 3.12-16.87 6-25.36 8.84a80.28 80.28 0 0 1-11.07 3c-8.79 1.59-16.43-.92-22.79-7.24-11.72-11.63-18.41-26-22.42-41.74a207.46 207.46 0 0 1-4-20.72c-2.38-15.81-4.56-31.66-6.69-47.51a80 80 0 0 1-.37-9.55c0-2.18 3.47-4.86 5.33-4 18.76 8.33 37 17.58 51.8 32.23 6.38 6.29 12.67 12.69 19.32 18.68 13.08 11.81 17 12.17 32.13 3 10.4-6.3 20.64-12.85 30.82-19.5 13-8.48 23.64-19.51 33.24-31.61 20.08-25.34 34.64-53.67 45.54-84 10.2-28.35 17.21-57.57 23.15-87.06 4.17-20.68 7.76-41.5 13.68-61.79a17.46 17.46 0 0 0-.88-13c-1.12-2.3-2-4.7-3.08-7a85.48 85.48 0 0 1-6.68-23.9c-4.63-34.22-9.69-68.39-14.63-102.58-.64-4.43-1.7-8.81-2.15-13.25-1-9.43-5.46-16.9-12.15-23.27a128 128 0 0 0-9.85-9.1c-8.23-6.32-14.81-14.08-20.94-22.33-6.87-9.24-13.77-18.47-20.88-27.53-7.91-10.1-16.62-19.5-26.8-27.37a63.28 63.28 0 0 1-16.47-18.49c-1-1.66-2.08-3.23-3.13-4.84-4.38-6.68-10.42-10.83-18.05-13.45-6.81-2.33-12.46-1.32-17.93 2.88a6.32 6.32 0 0 1-1.84.64c-3.52.32-5.81-2-8.27-4-7.55-5.92-15-12-22.61-17.82a99.22 99.22 0 0 0-34.08-17.16c-3.62-1-7.53-1-11.32-1.06-.92 0-2.15 1.19-2.73 2.15a6.8 6.8 0 0 0-.84 3.61c.47 12.6-3.82 23.88-9.53 34.76-2.67 5.1-5.35 10.2-8.11 15.26a19.27 19.27 0 0 0-2 14.86c6.49 22.22 4.21 44.34-.12 66.5-3.93 20.08-7.54 40.23-11.75 60.25a143.46 143.46 0 0 1-15.15 41.28c-1.57 2.79-3.15 5.57-4.56 8.44a17.8 17.8 0 0 0-1.21 13.06c1.21 4.31 2.22 8.68 3.5 13a174.87 174.87 0 0 1 7 43.46A386.59 386.59 0 0 1 3022 1611a164.81 164.81 0 0 0-.49 34.47q4.42 49.71 8.61 99.44c.27 3.18.33 6.39.64 9.57 2.11 21.5-2.86 42-9.25 62.18-1.19 3.78-3.57 6.75-7.76 7.77a18.87 18.87 0 0 0-3.6 1.29 11.78 11.78 0 0 0-6.92 8.65c-1 5-1.74 10.08-2.24 15.16-.53 5.32-2.11 10-6.37 13.46-7.89 6.44-9.1 15-7.59 24.34 2.65 16.42 5.38 32.82 8 49.25a441 441 0 0 1 5.83 64.92c.17 15.87-2.72 30.5-13.11 43-6.23 7.52-7 16.06-4.78 25.34 2 8.07 3.56 16.25 5 24.43 2.07 11.87.34 23-7.66 32.51a17 17 0 0 0-4.36 10.36c-.5 9.72-3.68 18.77-7.45 27.64-1.74 4.12-3.67 8.2-5 12.46-2.91 9.27-4.32 18.7-1.68 28.34.68 2.47 1.06 5 1.8 7.46 2.81 9.3.35 17.69-4.34 25.67a47 47 0 0 1-4.53 6.19 21.16 21.16 0 0 0-4.44 10.44c-.84 5-1.83 10.07-2.86 15.08a119 119 0 0 1-33.48 61.45c-12.25 12.18-24.75 24.1-37.22 36.07a77.15 77.15 0 0 1-25.69 16.47c-9.54 3.69-19.1 7.23-29.21 9.26-10.8 2.16-21.58 3.31-32.36.87-6.65-1.51-12.63-.16-18.71 2.1a137.55 137.55 0 0 0-24.11 11.7 63.07 63.07 0 0 1-46.08 8.47c-4.39-.85-8.84-1.47-13.15-2.63-40.88-11-77.27-30.32-108.66-58.82a397 397 0 0 1-38.38-40.28c-23.49-28.27-30.22-60.31-20.12-95.34 13.56-47.06 37.61-88 73.65-121.62a162.89 162.89 0 0 1 29.39-21.48c19.94-11.6 41-20.89 61.85-30.71a13.87 13.87 0 0 1 11.15-.36c8.4 3.09 16.95 5.82 25.23 9.2 28.82 11.72 51.21 31.09 67.23 57.72a164.41 164.41 0 0 1 9.8 18.68c3.87 8.78 7.31 17.57 14.51 24.51 4.15 4 6.08 9.76 6.91 15.57 1.35 9.5 2.49 19 3.76 28.54.88 6.67-1 12.66-4.47 18.25-1.68 2.72-3.37 5.43-5.17 8.08-7.92 11.63-16.16 23.06-22.05 36a28.81 28.81 0 0 1-3.06 4.87c-6 8.19-13.92 13.11-24 14.26-10.23 1.17-20.45.47-30.64-.74q-12.37-1.46-24.75-3c-31.6-3.93-52.79-21.27-64.05-50.68-4.69-12.25-3.92-25.16-1.78-37.92a9.33 9.33 0 0 1 1.49-3.48c9.86-15 19.89-29.8 31.89-43.2 4.08-4.55 9.05-7.14 15.12-7.15a106.06 106.06 0 0 1 13.33.88c2.68.33 4.53 2.35 5.67 4.71.51 1.06.86 2.88.3 3.62-1.05 1.39-2.8 3.15-4.27 3.16-3.12 0-6.26-1-9.4-1.54-3.62-.61-6.49.72-8.08 3.52-2.55 4.51-4.88 9.21-4.31 14.49s-1.63 9.93-3.37 14.72a29.31 29.31 0 0 0-1.41 15.14 84.88 84.88 0 0 0 2.44 11.22c2.34 7.31 5 14.52 7.62 21.73a20 20 0 0 0 13.22 12.87c10.52 3.46 21.37 3.64 32.25 3.7a11.55 11.55 0 0 0 5.51-1.44c4.45-2.5 8.82-5.18 13-8.1 2.81-2 3.66-5.12 3.56-8.47a13 13 0 0 0-.45-3.79c-5.11-15.46-5.44-31.44-5.2-47.47a297.44 297.44 0 0 0-1.38-36.43 61.69 61.69 0 0 0-4.31-16.65 27.18 27.18 0 0 0-3.67-6.69c-7.55-9.54-15.5-18.71-24.82-26.63-10.29-8.75-22.42-12-35.58-12a12.72 12.72 0 0 0-7.17 2.22c-7.68 5.74-15.24 11.66-22.49 17.94A38.68 38.68 0 0 0 2641 2115c-3.14 11.67-10.65 18.54-22 21.85-3 .92-5.88 2.15-9.27 3.41zM740.89 1273.4c-5.74-1.41-9.19-5.41-13.24-8.47-7.65-5.79-15.13-11.82-23-17.33a89.82 89.82 0 0 0-31.25-14.23 38.34 38.34 0 0 0-9.46-.69c-1 0-2.09 1.26-2.94 2.12-.35.37-.3 1.23-.29 1.86.41 15.19-4.35 29-11.61 42-10 17.9-9.28 19.71-5.38 38.37a99.65 99.65 0 0 1 .17 40c-3.44 17.57-6.21 35.28-10 52.76-2.17 10-5.64 19.65-8.86 29.36s-6.95 19.24-10.28 28.91c-1.45 4.22-2.49 8.58-3.69 12.88a38.36 38.36 0 0 0 .21 20.82c2.34 8.63 4.33 17.37 6 26.15a194.51 194.51 0 0 1 .4 72.51 141.48 141.48 0 0 0-2.34 32.45c.58 12.14 1.27 24.27 1.87 36.41.24 4.7-2.76 6.87-7.48 5.35-5.48-1.76-10.9-3.68-16.36-5.49-1.83-.61-4.35.44-4.76 1.92a111.68 111.68 0 0 0-4.24 30.3 21.91 21.91 0 0 0 9.12 18.16c3.55 2.68 7.62 4.67 11.32 7.18 4.22 2.86 8.64 5.57 12.34 9a31.24 31.24 0 0 1 10.33 23.94 65.26 65.26 0 0 1-.8 11.46c-2.44 12.56-5.12 25.07-7.83 37.56-1.25 5.74-3.51 10.9-8.62 14.49a84.12 84.12 0 0 0-7.2 6.32 17.3 17.3 0 0 0-6.25 13.46c-.08 10.82-3.9 20-12.47 26.9-.94.76-1.46 2-2.7 3.81-.86 10.76.5 22.2 1.33 33.66.36 5.1 1.25 10.17 1.47 15.28.57 13.49 3 26.66 5.94 39.8 4.2 18.88 5.78 37.89 2.93 57.17-.86 5.82-2.17 11.15-5.91 15.91-10.3 13.08-11.7 27.95-8.1 43.67 1 4.36 1.82 8.8 3.2 13 3.45 10.53 2.13 20.94-4.22 29.3-7.34 9.67-10.24 20.32-12.33 31.73a76.86 76.86 0 0 1-4.67 14.58 62.44 62.44 0 0 0-3.93 33.86 145.39 145.39 0 0 1 1.76 17.17c.36 8.53-1.24 16.82-7.17 23.25-4.64 5-6.52 10.85-7.47 17.25-4.9 33.08-20.94 60-45.33 82.35-9.44 8.64-18.82 17.34-28.24 26-18.67 17.18-41.27 25.26-66 27.81-6.9.71-14.07 0-21-1a37.57 37.57 0 0 0-17 1.78 103.55 103.55 0 0 0-24.24 11.38c-11 7.14-23.33 10.92-36.36 10.35a125 125 0 0 1-26.4-4.44A255.86 255.86 0 0 1 173 2355.54a390.14 390.14 0 0 1-37.26-38.69c-7.45-8.87-13.89-18.4-18.32-29.13-7-16.9-9.49-34.36-6.57-52.6 2.66-16.59 8.16-32.21 15.12-47.36a294 294 0 0 1 24.77-43.25c11.22-16.39 23.64-31.85 36.39-47.05a49.77 49.77 0 0 1 13-11.23q27.28-16.07 54.45-32.34c18.36-11 37.44-12 57-3.89a105.23 105.23 0 0 1 17.07 8.66 232 232 0 0 1 41.59 33.86c12.12 12.64 21.67 26.91 26.63 43.86 1.65 5.63 3.86 10.71 7.8 15.17 7 7.94 10.16 17.63 11.64 27.93.81 5.7 1.47 11.42 2.26 17.13a33.07 33.07 0 0 1-5.58 23.71c-1.07 1.6-2.13 3.2-3.24 4.77-8.45 12-16.71 24.22-23.43 37.36a45.6 45.6 0 0 1-2.94 4.94c-5.79 8.43-13.74 13.49-24 13.86a231.85 231.85 0 0 1-28.76-.34c-12.09-1.06-24.12-3-36.11-4.92-36.37-5.91-59.17-44.52-59.21-71.36 0-9.21 1.81-17.58 7.66-25.11 7.05-9.09 13.37-18.75 20.25-28a107.28 107.28 0 0 1 10.1-11.53 15.92 15.92 0 0 1 6.42-4 35.37 35.37 0 0 1 20.8 0 9.38 9.38 0 0 1 4.47 3.35c1 1.4 2 3.76 1.45 5.09s-3 2.74-4.54 2.68c-3.8-.13-7.55-1.16-11.35-1.71-2.89-.42-6.47 1.8-7.54 4.77-1.3 3.6-3 7.22-3.39 10.94-.67 7-1.35 13.85-4 20.52-1.93 4.81-1.27 10.15.27 15.12q5.08 16.47 10.51 32.85c1.05 3.19 3.66 5.3 6.56 6.7 14.35 6.9 29.44 8.37 44.89 5.13 7.67-1.61 13.32-8.6 14.16-16.38a55.78 55.78 0 0 0 .24-7.65c-.74-25.6-3.28-51.07-5.67-76.54a60.68 60.68 0 0 0-12.47-31.73 125.74 125.74 0 0 0-19.59-21c-10.32-8.5-22.21-12.39-35.39-12.82-3.93-.13-7.72.6-10.82 3.15-6.92 5.69-13.88 11.33-20.51 17.33a46.77 46.77 0 0 0-12.66 19c-1.08 3-2.13 6-3.44 9a21.23 21.23 0 0 1-12.17 11.58c-4.7 1.79-9.53 3.29-14.7 5-.17 3.52-.58 6.68-.43 9.81 1.62 32.63.55 65.25 0 97.88-.12 7-.39 14.08-.13 21.11 1 27.55 11.73 50.83 31.65 69.8 13.56 12.9 29.43 22.51 46 30.94a55.62 55.62 0 0 0 25.92 6.11c5.27 0 10.16.42 14.5 3.73a11.59 11.59 0 0 0 10.94 1.68c20.13-6.33 40.35-12.38 60.29-19.21 16.42-5.63 28.81-16.18 35.94-32.48 5.44-12.43 13.56-23.07 22.86-32.94a121.24 121.24 0 0 0 30.62-58.74 124.61 124.61 0 0 0 2.56-17c1.47-20.46 2.2-40.89-3-61.06a38.23 38.23 0 0 1 .39-20.86c3.39-11.33 2.78-22.78.45-34.18-2.67-13.16-5.54-26.22-6.39-39.73-.43-6.86-3.17-13.64-5.31-20.31-1.55-4.85-3.83-9.48-5.81-14.19-7.45-17.77-6.25-34.82 3.56-51.49 3.19-5.42 7-8.89 13.43-8.88.46 0 .92-.69 2.11-1.62.52-3.08 1.34-6.81 1.78-10.58 2.37-20.32 4.63-40.66 6.95-61 .88-7.67-2-13.76-7.88-18.51-4.48-3.61-9.13-7-13.52-10.72a9.46 9.46 0 0 1-1.89-12.17 74.13 74.13 0 0 1 19-21.39c9-7 13.78-16.59 16.15-27.55a31.3 31.3 0 0 0 .46-13.31c-2.38-11.25-4.65-22.53-7.05-33.79-2.13-10-4.62-19.93-6.52-30-4.71-24.92-4.17-49.59 3.85-73.91 3.24-9.82 4.35-19.81 2.16-30.25-1.63-7.77-3.23-14.69-11-19-4.78-2.69-6.32-8.14-5.43-13.5 2.91-17.62 4.81-35.63 15.91-50.7a21 21 0 0 0 3.88-10.7c2.38-24.32 10.2-47.47 15.27-71.22 1.6-7.5 3.71-14.88 5.43-22.36 2.87-12.48 5.49-25 5.31-37.92a31.77 31.77 0 0 1 5-18.21c7.12-10.93 11-22.94 13-35.78 1.24-8.21 3.28-16.3 5.13-24.39a17.57 17.57 0 0 1 9-11.85 62.2 62.2 0 0 0 6.72-3.67c5-3.7 7.14-8.83 6.5-15.06a5.84 5.84 0 0 0-.27-1.89c-4.58-9.73-1.47-19 2.55-27.7a233.46 233.46 0 0 1 13-23.45c4-6.56 8.57-12.74 12.79-19.15 2.52-3.83.93-7.06-3.94-8.32a141.42 141.42 0 0 0-34.11-4.86c-18.57-.19-37 .49-55.5 3.17-23.4 3.41-47 5.6-70.49 8.33a5.15 5.15 0 0 0-4.73 5c0 4.47.38 9 .06 13.4-1 13.52-6.74 25.06-17.84 32.6-19.06 13-39.11 24.32-61.71 30.27a88.37 88.37 0 0 1-24.65 3.24 110.25 110.25 0 0 0-32.22 4.25c-20.33 5.65-40.73 11.06-61.08 16.62-2.46.67-4.85 1.64-7.25 2.52-3.77 1.37-6.7 3.67-8.18 7.52l-2.07 5.38a14.29 14.29 0 0 1-6.29 7 80.41 80.41 0 0 1-23 9.57c-17.25 4.28-31.94 13.1-44.66 25.12-8.81 8.33-17.07 17.3-25.1 26.4-7.85 8.89-11.24 20-13.43 31.39-3 15.74-3 15.74 5.56 28.6 1.42 2.13 2.77 4.3 4.11 6.47a25.53 25.53 0 0 1 1.11 2.63c-1.23 4.15-2.56 9-4.13 13.83a228.31 228.31 0 0 0-7.23 29.78c-4.31 23.12-2.53 45.91 2.56 68.56a150.7 150.7 0 0 1 4 34.21v3.84c.76 22 .07 19.45 15.85 32 8.49 6.78 17.31 13.19 24.2 21.77 5.12 6.36 12.25 9.09 20 10.3a95.6 95.6 0 0 0 15.29 1.28 113.2 113.2 0 0 1 37.65 6.13c12.8 4.34 26.19 5.61 39.75 5.44a115.67 115.67 0 0 0 46.58-10.45 161.31 161.31 0 0 0 32.66-20c9.1-7 18.29-14 27.42-21a44.47 44.47 0 0 0 4.38-3.71c5.38-5.38 7.48-11.92 5.85-19.32a98.77 98.77 0 0 0-4.15-12.75q-16.71-45-33.5-89.88c-.89-2.4-1.91-4.75-2.79-7.15-2.53-6.94-7.9-9.7-14.85-10a35.47 35.47 0 0 0-5.74.2 12.6 12.6 0 0 0-9.44 5.91 42.35 42.35 0 0 0-4.35 8.5q-10.72 30.79-21.13 61.69a44.82 44.82 0 0 0-2.26 9.29 16.51 16.51 0 0 0 7.61 16.49c5.25 3.53 11.86 5 15.88 10.43 1 1.44 1.15 4.11-.19 5-.52.36-.89 1-1.45 1.24-8.7 4-17.34 8.19-26.17 11.91a12.11 12.11 0 0 1-7.48.38c-12.9-3.7-25.71-7.74-38.52-11.73-2.26-.7-3.7-3.84-3.07-6.31 5.13-19.8 9.93-39.7 15.56-59.37a223.91 223.91 0 0 1 11.35-30.58c9.16-20.23 23.25-36.64 41.15-49.73 8.92-6.53 18.71-11 29.95-11.75a53.63 53.63 0 0 1 24.4 3.82c16.8 7 31.28 17.47 44.32 29.85 9 8.58 13.87 19.87 16.44 32 2.25 10.63 4.1 21.35 6.1 32 3.9 20.77 8.66 41.3 16.65 61a66.07 66.07 0 0 1 2.94 9.13 51.6 51.6 0 0 1-2.57 33.81 87.7 87.7 0 0 1-12.09 19.53c-7.17 9-14.38 18-21.84 26.76a160.7 160.7 0 0 1-13.29 13.83c-8.59 7.93-18.36 14.23-30 16.3-23.4 4.17-42.43 17.4-62.12 29.22-5.39 3.23-9.71 8.24-13.71 11.73-9 2.13-17.11 3.91-25.11 6-4.44 1.15-8.75 1.69-13.19.14s-8.75-.76-12.85 1.66c-3.26 1.91-6.7 3.53-10.09 5.3-2.08-1.17-4.1-1.71-5.21-3-6.19-7.28-14.46-10.66-23.46-11.89-14.83-2-28.33-7.73-41.69-13.92a396.21 396.21 0 0 1-48.6-27 222.08 222.08 0 0 1-49.86-44.65 128.29 128.29 0 0 1-23.59-41.48c-9.14-27.19-7.64-54.18 2.53-80.77 3-7.76 6.55-15.28 10-22.84a193.58 193.58 0 0 0 14.5-45.57c3-16.51 4-33.09 1.68-49.67-1.51-10.55.31-20.31 4.08-30a167.22 167.22 0 0 1 23.38-41.72c8.19-10.63 16.89-20.89 25.72-31 13.88-15.91 28.15-31.48 42.06-47.35a192.06 192.06 0 0 1 35.88-31.7c23.73-16.3 47.46-32.64 71.79-48 40.46-25.54 84.64-42.08 131.47-51.53a519.9 519.9 0 0 1 62.69-8.59 196.34 196.34 0 0 0 32.1-5.39 516 516 0 0 1 87-14.08c23.6-1.74 47.11-4.6 70.68-6.82a64.12 64.12 0 0 0 30.43-10.73c14.31-9.68 29-18.92 42.72-29.32 12.1-9.13 25.46-14.39 40-17.33a242.91 242.91 0 0 1 70.67-3.69c1.91.18 3.83.35 5.73.6 14.12 1.87 23.5 10.3 28.31 23 3.62 9.53 6.9 19.19 10.89 28.6 2.7 6.38 1.62 12.62-3.58 17.64-2.75 2.66-5.66 5.16-8.6 7.61a3.94 3.94 0 0 1-5.25 0c-4.26-3.84-8.21-8-12.36-12-4.62-4.42-9.14-9-14-13.07a33.13 33.13 0 0 0-19.2-8c-24.59-1.69-48.61.59-71.1 11.64a116 116 0 0 0-14.72 9c-2.39 1.65-6 3.19-4.88 7.16.78 2.73 3.64 3.27 6.08 4.05a270 270 0 0 1 60.62 28.38c40.15 25.18 79.16 52 114.82 83.37 11.52 10.13 22.6 20.8 33.33 31.77a227.48 227.48 0 0 1 48.34 73.21c7 17.14 14.8 34 23 50.64a160.83 160.83 0 0 1 16.92 66.4c.31 9.12 1.69 17.88 5.73 26 7.24 14.53 10.39 30.2 13.12 46s4.93 31.6 7.25 47.42a59.71 59.71 0 0 1 .5 9.55c-.06 3.29-1 6.71-3.61 8.61-10.46 7.71-14.37 19.1-18.5 30.62-4.73 13.24-10.11 26.25-15.31 39.32-1.9 4.75-4.2 9.33-6.14 14.06-3.09 7.53-8.61 12.57-15.83 16-2.9 1.35-5.81 2.69-8.76 3.93a40.71 40.71 0 0 0-21.55 20.85c-1.93 4-3.65 8.21-5.91 12-4.22 7.16-8.41 14.36-13.25 21.1-7.21 10-16.38 18.3-28 22.64-18.11 6.77-31.57 19-43.32 33.75-10.38 13-20.92 25.92-33.05 37.35a207.06 207.06 0 0 1-20.58 17.19 77.39 77.39 0 0 1-29.62 13.12c-13.84 2.9-27 7.68-40 13.36q-8.77 3.86-17.82 7.09a59.36 59.36 0 0 1-11.09 2.9 24.11 24.11 0 0 1-21.16-6.69c-8-7.63-13.68-16.88-17.87-27a124.65 124.65 0 0 1-8.15-29.53c-2.13-14.55-4.38-29.09-6.46-43.65a65.17 65.17 0 0 1-.6-9.57c.06-9.26 1.13-12.71 12.4-9.32 18.35 5.52 33.55 15.46 46.53 29.25 4.39 4.66 8.74 9.36 13.28 13.86a60 60 0 0 0 8.7 7.48c6.28 4.18 13.07 5 20 1.63a75.39 75.39 0 0 0 6.72-3.67c8.74-5.33 17.39-10.8 26.17-16.06a131.72 131.72 0 0 0 29.38-24.48c20.54-22.47 35.88-48.13 47.22-76.28a335.2 335.2 0 0 0 15.39-47.4c9.8-41 19.3-82.17 29.11-123.21 1.31-5.48.63-10-3-14.24-7.83-9.15-10.9-20-11.54-31.86-1.61-30-4.32-60-3.28-90.11.4-11.5.09-23 0-34.53a5.61 5.61 0 0 0-4.53-5.32 32.47 32.47 0 0 0-3.79-.49c-13.82-.5-24.18-7.52-32.78-17.62-3.31-3.88-6.2-8.13-9.22-12.26-5.67-7.74-11.18-15.6-16.95-23.27a200.83 200.83 0 0 0-32.82-34.87 75.58 75.58 0 0 1-17.65-20c-.33-.55-.7-1.07-1-1.62-5.54-9.4-13.86-14.78-24.4-17a12.39 12.39 0 0 0-9.21 1.36c-2.16 1.12-4.39 2.22-6.27 3.21zM1978.38 1826c4.85-3.13 6.18-7.66 8.72-11.28a88.28 88.28 0 0 1 26.33-24.85 134 134 0 0 1 46.48-17.32c10.48-1.92 20.36.86 30 4.35a65.69 65.69 0 0 1 26.87 18c3.85 4.26 7.45 8.78 10.89 13.39 6.87 9.23 13.57 18.58 20.29 27.93a42.3 42.3 0 0 1 4.05 6.48c2.25 4.77 3.19 9.79.88 14.83-2.93 6.38-5.78 12.83-9.18 19a24.22 24.22 0 0 1-6.52 6.88 70.35 70.35 0 0 1-9.76 6.06c-7.38 4-14.64 4.16-21.57-1.19-2.48-1.92-5.09-3.67-7.56-5.44-8.69 2.11-16 6.07-23.69 9.15-11.32 4.54-22.69 8.73-35.13 8.9a25.85 25.85 0 0 0-7.55 1.21c-9.09 2.93-16.4 8.21-17.3 18.35-.61 6.86-3.32 12-7.63 17-5.47 6.26-10.59 12.82-16 19.18-8.28 9.82-17.33 18.81-27.92 26.18a95.77 95.77 0 0 0-7.58 5.87c-4.61 4-7.35 8.86-6.66 15.14 1.71 15.5-.42 30.61-4.38 45.57-3.81 14.44-4.12 29.09-2.22 43.82 1.64 12.68 2.67 25.41 5.69 37.92 5 20.92 13.55 39.91 28.45 55.72q6.57 7 13.12 14c4.36 4.68 9 9.18 13 14.12 14.89 18.21 8.76 13 31.23 19.59a337.8 337.8 0 0 0 48.74 10.4 164.37 164.37 0 0 0 59.12-2.14c3.73-.84 7.33-2.26 11-3.23 5.78-1.52 10.37-4.86 14.45-9 1.34-1.38 2.63-2.81 3.84-4.29 14.18-17.33 28.46-34.58 42.46-52.06 11-13.74 17.73-29.54 21-46.8a122.57 122.57 0 0 0 .51-40.13c-2.06-14.61-6.38-28.7-11.15-42.63a67.24 67.24 0 0 0-3.12-7c-4.44-9.29-11.73-15-21.81-17.06-5.64-1.13-11.32-2.22-17-2.79a70.17 70.17 0 0 1-25.66-7.3c-3.66-1.89-5.95-1.4-7.89 2.22-6.14 11.42-15.06 18.35-28.12 20.62-6.84 1.19-13.41 4.19-19.94 6.78a42.2 42.2 0 0 0-10 5.6c-6.38 4.87-10.15 11.33-10.54 19.59-.78 16.71.85 33.24 3.81 49.65 1.48 8.22 6.56 13.61 14.25 16.74 9.25 3.77 18.56 4.79 28 .86q15-6.28 30-12.84a23.2 23.2 0 0 0 11.82-12.06c3.77-8.12 7.4-16.31 11.32-24.36a30.58 30.58 0 0 1 5.29-7.83c1.08-1.12 3.46-1.38 5.24-1.35 2.21 0 4.54 3.33 4.38 5.52a18.16 18.16 0 0 1-.26 3.79c-6.5 22.08-12.82 44.22-22.81 65.08a65 65 0 0 1-10.51 16c-10.18 11.17-22.91 15.95-37.84 15-9.74-.64-18.89-3.27-27-8.9-12.18-8.43-23.43-17.87-31.3-30.65a115.66 115.66 0 0 0-19-23.93c-8.38-7.9-12.08-18.13-11.52-29.49 1-19.25-.34-38.35-2.27-57.47a62.23 62.23 0 0 1 3.37-26.47c5.45-15.93 14.63-29.79 24.75-43.07 2.78-3.65 6.65-6 10.78-7.78a51.07 51.07 0 0 1 22.39-4.53c3.83.12 7.66.45 11.48.77a63.31 63.31 0 0 0 33.5-6.46c4.6-2.24 9.15-4.59 13.81-6.7 12-5.41 23.68-4.82 34.56 2.86 18.82 13.28 37.59 26.6 54.91 41.89 8.47 7.48 14.31 16.23 16.86 27.23q3 13.06 6.21 26.12c2.87 11.85 6.65 23.23 13.53 33.59 10.17 15.33 10.83 32.5 7.44 49.94a81 81 0 0 1-15.37 34.82c-6.39 8.17-11.11 17.13-15.18 26.55-1.53 3.52-3.4 6.89-4.83 10.45-9.86 24.62-24.1 46.5-41.39 66.48-2.92 3.38-5.89 6.75-9.05 9.91-7.42 7.42-16.15 12.44-26.62 14.26-19.53 3.39-39 7.53-59 6.76-7-.27-14.1-.32-20.87-2.58a41.53 41.53 0 0 0-19-1.33 59.4 59.4 0 0 1-30.1-3.79c-13.09-5.12-26.36-9.82-39.62-14.48a66.66 66.66 0 0 1-18.26-10.36c-26.29-20-48.21-43.85-65-72.39-2.58-4.41-5.24-8.77-7.92-13.12-1.26-2-4.85-2.39-6.71-.57-5 4.92-10 9.87-14.93 14.91-7.14 7.34-14.19 14.76-21.28 22.14a404.43 404.43 0 0 1-52 45.37c-17 12.54-34.1 24.9-51.15 37.35-6.22 4.53-12.06 9.33-16.54 15.81-11 15.93-27.28 22.88-45.82 24.52a314.57 314.57 0 0 1-65.14-1.27c-16.51-2-33-4-49.47-6.37a210.79 210.79 0 0 1-26.33-5.14 100.48 100.48 0 0 1-37.2-19.4c-28.18-23.23-55.16-47.74-78.22-76.23a209.12 209.12 0 0 1-35.62-63.21c-2.93-8.45-6-16.86-8.53-25.45-5.34-18.5-9-37.3-9.17-56.65 0-5.76-.5-11.52-.35-17.27q1.11-42.21 2.46-84.42c.33-10.32 1.56-20.46 7.89-29.2 12.06-28.8 31.19-52.64 52.21-75.28 32-34.47 67.73-64.22 108.65-87.59a412.31 412.31 0 0 1 55.42-26.29 152.55 152.55 0 0 1 25.71-7.63c14-2.76 26.76-.06 38.12 8.48 18.93 14.21 37.42 29 55.13 44.72 15 13.38 23.78 30.06 27.52 49.35 4.13 21.36 6.21 43 8.17 64.7 1.5 16.61-2.77 31.66-11.24 45.76a400.81 400.81 0 0 1-31.06 43.8c-14.9 18.65-14.89 18.66-36.1 30.54-4.46 2.49-9 4.77-13.54 7.2-5.89 3.18-12.2 3.78-18.65 2.78a98.93 98.93 0 0 1-25.64-7.72 17.4 17.4 0 0 1-8.21-7.79 73.85 73.85 0 0 1-5.5-12.21c-6-18.87-11.89-37.81-17.7-56.76a35.51 35.51 0 0 1-1.23-7.56q-1.8-23-3.43-45.93a70.25 70.25 0 0 1 2.86-26.55 47.51 47.51 0 0 1 11.93-19.4c10-10 24.24-5.29 30.21 3a13.87 13.87 0 0 1 2.38 10.94c-1.09 5.76-3.8 10.84-6.45 16a95.62 95.62 0 0 0-8.83 23.25 45.32 45.32 0 0 0-.89 17.15c3.6 22.09 12.51 41.52 29.11 57 3.27 3.06 6.58 3 9.88-.85 5.4-6.3 10.9-12.59 15.67-19.37 11.86-16.82 20.49-35.38 28-54.46a41.57 41.57 0 0 0 2-7.39c1-5.29.48-10.33-3.88-14.06a15.92 15.92 0 0 1-6-11.57c-.9-16-5.17-31.53-8-47.25-1.71-9.44-4-18.76-5.84-28.18a18.93 18.93 0 0 0-8.15-12.48c-15.45-10.75-32.14-15-50.89-10.55a119.46 119.46 0 0 0-58 32.07 146.86 146.86 0 0 0-28.41 38.66c.25 2.45.46 5 .77 7.5a36.89 36.89 0 0 1-4.51 22.2 75.46 75.46 0 0 1-7 11.43c-18.56 23.46-30.32 50.31-39.19 78.54-3.45 11-6.28 22.09-13 31.76a22.21 22.21 0 0 0-3.51 12.81c0 6.38-.14 12.85.8 19.13 2 13.38 1.67 26.77 1.54 40.21-.15 16 .11 32 .47 48 .49 21.93 5.21 43.09 12.13 63.83a463.19 463.19 0 0 0 17.94 44.45 35 35 0 0 0 10.25 13.63q15.1 11.85 30 24a38.71 38.71 0 0 0 13.5 7c11 3.31 21.91 7 33 10.17 32.84 9.31 70.84 3.67 99.36-15.23 9.67-6.41 19.27-12.54 30.61-15.49a18.64 18.64 0 0 0 5.24-2.32c10.73-6.94 21.45-13.91 32.09-21a40 40 0 0 0 11.74-12.51c3.19-5.21 7.86-8.26 13.45-10.21.6-.21 1.22-.39 1.83-.59 25.38-8.33 47.15-22.67 66.91-40.3q7.88-7 15.43-14.41a64.12 64.12 0 0 0 7.63-8.6c5.44-7.66 7.75-16.05 4.82-25.38-1.73-5.49-3.36-11-5.11-16.49-10.62-33.32-14.37-67.42-12.15-102.29 1-15.43 4.17-30.39 8.11-45.24 2.18-8.2 6.45-15.31 11.78-21.78 4.88-5.92 9.93-11.72 15.07-17.41 10.81-12 19.59-25.16 25.42-40.34 3.89-10.14 8.46-20 12.85-30a99.23 99.23 0 0 1 6-12c4-6.46 9.53-10.26 17.61-8.82 2.54.21 5 .43 6.68.63zM1941.18 2516.44a408 408 0 0 0 67.2 1.18c33.21-2 66.38-4.44 99.43-8.45a229.86 229.86 0 0 1 63.13 1.12c48.71 7.52 97.69 12.85 146.88 15.7a778.68 778.68 0 0 0 113.16-1.33 1279.79 1279.79 0 0 1 184.1-3.08c13.41.75 26.85 1 40.28 1.44q86.34 2.54 172.69 5c16.62.5 33.23 1.73 49.85 2 13.42.24 26.86-.35 40.29-.74 10.86-.31 21.72-1.22 32.58-1.29 95.35-.6 190.7-1 286-1.63 69.75-.48 139.47-2.21 209.14-5.83 10.86-.57 21.74-.8 32.62-1.07a109.48 109.48 0 0 1 26.7 2.24c17.54 3.88 35.37 5.11 53.27 6.38 48 3.38 95.95 1.75 143.92 1.36 17.24-.13 34.47-2.19 51.7-3.44 7-.52 14-.68 21 .72a22.3 22.3 0 0 1 11.85 5.92c9.68 9.93 15.65 21.69 16.29 35.8a16.68 16.68 0 0 1-4.51 12.26c-8 8.95-17.68 14.43-29.82 15.63-25.45 2.51-50.89 5.28-76.33 8-8.91.94-17.81 2-26.72 2.84a81.81 81.81 0 0 1-28.55-1.68c-22.41-5.68-45.51-6.7-68.41-9-30.06-3.07-60.09-.44-90.11.47-29.41.9-58.78 3.15-88.24 2.66q-62.38-1-124.77-1.92c-52.47-.69-104.94-1.18-157.4-1.89-26.87-.36-53.74-1-80.61-1.52-35.19-.65-70.38-1.41-105.57-1.83-17.94-.21-35.8-1.08-53.54-3.89-12-1.91-24.15-3.1-36-5.61-14.67-3.1-29.21-2.6-43.9-.91-31.13 3.6-62.28 7.06-93.42 10.63q-22.87 2.63-45.73 5.44a240.09 240.09 0 0 1-53.65.76c-21.69-2.21-43.42-2.53-65.17-3.08-44.77-1.11-89.56-2-134.32-3.6-16.58-.6-33.1-3-49.65-4.61-1.55-.15-2.63-.88-2.47-2.41a4.65 4.65 0 0 1 1.51-3c1.54-1.09 3.58-1.48 5.08-2.6a3.45 3.45 0 0 0 .94-3.12 3.72 3.72 0 0 0-2.69-2.08 110.75 110.75 0 0 0-13.39.11q-41.11 3.42-82.22 7.08c-10.19.91-20.36 2.12-30.55 3-21.09 1.89-42.22.9-63.32.55-44.14-.73-88.28-2-132.43-2.66-29.42-.44-58.88-.81-88.29-.1-35.18.85-70.33 2.72-105.48 4.44-21.75 1.07-43.49 1-65.24.31-22.39-.73-44.76-1.61-67.14-2.52-7.67-.31-15.32-1.07-23-1.31-15.89-.51-29.79-6.66-43-14.75-2.06-1.26-3.36-4.56-2.36-6.62 4.21-8.6 8.23-17.32 12.9-25.67a17.51 17.51 0 0 1 14-8.93c3.81-.39 7.65-.57 11.48-.72 33.25-1.3 66.49-2.69 99.75-3.79a341.71 341.71 0 0 0 47.66-5.1 103 103 0 0 1 15.19-2c32.62-.79 65.25-1.87 97.87.12 3.9.24 7.73.5 9.54.62zM1033.3 1822.94c4.81-5.46 10.18-11 14.86-17 13.22-17.07 31.2-26.12 51.64-30.83 31.25-7.19 56.74 2.29 76.15 27.66 9.32 12.18 18.14 24.74 27 37.3 3.87 5.52 5 11.67 2.15 18.19-2.53 5.87-4.73 11.88-7.34 17.7-2.19 4.9-5.81 8.43-11.35 9.35-3.79.63-7.73.9-10.61 3.81-5 5.07-9.91 4.72-15.19.34-2.92-2.43-6.26-4.36-9.8-6.77-3 1-6.06 1.84-9 3-6.53 2.6-13 5.39-19.49 8a85.68 85.68 0 0 1-27.84 6.72 40.46 40.46 0 0 0-9.49 1.22c-9.11 2.74-16.9 7.92-17.74 17.94-.71 8.45-5 14.22-9.83 20.16-4 5-8.08 9.93-12.17 14.84-8.22 9.86-17.21 18.91-27.71 26.4a108 108 0 0 0-10.39 8.48c-5 4.58-7.68 10.22-6.32 17.18 2.27 11.63.28 23-2.58 34.16a104.69 104.69 0 0 0-3.15 26.57c0 10.23.17 20.47 0 30.7-.36 20.18 4.49 39.26 11.87 57.83a88.07 88.07 0 0 0 18.47 28.91c4.87 5 9.52 10.35 14 15.76 20.57 24.91 47.21 38.3 78.94 42.85 26.24 3.76 52.33 1.75 78.46-.56a36.85 36.85 0 0 0 22.26-10.24 70.6 70.6 0 0 0 7.61-8.59c11.27-14.73 22.51-29.48 33.59-44.36 5.34-7.17 10.65-14.41 15.34-22a83.88 83.88 0 0 0 12.64-41.75c.47-14.12.08-28.16-3.82-41.86-3-10.45-5.76-21-9.26-31.24-4.48-13.18-13.41-21.47-27.78-23-3.81-.42-7.55-1.5-11.36-1.83a85 85 0 0 1-30.62-8.78c-3.29.44-4.71 2.6-6.14 4.72-2.14 3.18-4.29 6.36-6.34 9.6a13.27 13.27 0 0 1-7.49 5.62c-5.47 1.76-11 3.36-16.43 5.25-6.63 2.3-13.37 4.43-19.73 7.36-10.68 4.94-17 13.54-17.93 25.34-1.16 14.69-1 29.31 2.24 43.89 4.18 18.57 23.79 27.23 38.42 22.82a161 161 0 0 0 36.72-16.3 36.11 36.11 0 0 0 13.83-15.58c3.07-6.32 5.77-12.83 9-19.06a34.08 34.08 0 0 1 5.88-7.4c.7-.73 2.37-.84 3.55-.73a4.53 4.53 0 0 1 3.85 3.71 11.29 11.29 0 0 1 .26 5.64c-6.36 22.11-12.45 44.32-22.76 65a91 91 0 0 1-5.68 10c-9.27 13.93-22.28 20.5-39.07 19.82a59.67 59.67 0 0 1-32.35-10.56 142.62 142.62 0 0 1-29.57-27.19c-9.28-11.4-17.94-23.31-26.84-35a20 20 0 0 1-4.19-12.47q0-38.38-.21-76.76a47.85 47.85 0 0 1 6.21-23.88c6.9-12.25 14.24-24.26 21.82-36.09 1.58-2.47 4.8-4.28 7.65-5.44a53.9 53.9 0 0 1 18.67-4c6.39-.22 12.79-.45 19.18-.59a92.48 92.48 0 0 0 37.13-8.42c4.07-1.87 8.05-4.06 12.29-5.38 10.21-3.15 20.18-2.94 29.36 3.46 18.9 13.16 37.59 26.56 55 41.67a57 57 0 0 1 19.09 32.35c2.12 10 4.71 19.9 6.92 29.89 1.68 7.6 4.11 15.07 9 21 17.39 20.87 14.22 63.57-3 86.77-9.25 12.46-16.24 25.95-23.26 39.56q-11 21.32-21.76 42.73c-3.5 7-7.78 13.19-14.93 17-4.05 2.14-6.81 5.71-9.63 9.2-16 19.8-37.07 28.6-62.16 28.72-13.44.06-26.84-.3-40.19-2.22-7.59-1.09-15.26-1.62-22.91-2.16-16.66-1.18-33-3.93-48.8-9.5-7.83-2.77-15.67-5.59-23.65-7.88a54.78 54.78 0 0 1-20-11 299.47 299.47 0 0 1-57.74-63.8 342 342 0 0 1-32.23-60.91c-8.87-21.47-13.54-44-15.52-67-1.86-21.66-2.49-43.42-3.62-65.13-1.1-21.36 5.53-40.34 18.09-57.35 4.93-6.69 10.37-13 15.52-19.52s10.45-12.94 15.3-19.69c7.93-11 13.82-23.12 15.77-36.66 1.85-12.8 9.24-22.2 17.54-31.22a19.84 19.84 0 0 1 9.92-5.53c4.31-1.16 8.72-1.9 13.78-2.96zM2315.8 2933.22c-7.61.67-15.23 1.27-22.82 2.14-.77.09-1.46 1.71-2 2.73a2.54 2.54 0 0 0-.16 1.84c2.46 7.24 4.3 14.79 7.61 21.63 6.66 13.77 20 20.1 35.1 17a144.22 144.22 0 0 0 20.27-5.7c10.82-3.91 21.45-8.34 32.12-12.63 7.71-3.1 15.36-6.35 23.06-9.49a63 63 0 0 1 28.08-5.05 90.06 90.06 0 0 0 11.5 0c7.58-.49 13.5-5.59 14.6-12.88 1.14-7.57 2-15.2 2.64-22.84a31.58 31.58 0 0 0-4.57-18.38c-3.68-6.3-8.91-11-16.55-11.78a71.72 71.72 0 0 0-13.33-.48c-13.33 1.09-26 13.88-22.4 29.8a3.75 3.75 0 0 0 2.45 2.41c4.84.53 8.75-1.77 11.66-5.3 1.25-1.52-.77-3.27-1.74-4.83-1.77-2.86-.62-5.1 2.44-5 1.85.07 4.05.08 5.48 1a15.34 15.34 0 0 1 .17 25.79 17.52 17.52 0 0 1-12.69 3.29c-9.5-1.41-16.62-6-20.06-15.48a52.89 52.89 0 0 1-3.18-22.61c.56-6.9 4-12 10-15.44a22.38 22.38 0 0 1 5.19-2.46c15.25-4 30.39-4.38 44.91 2.73 12.81 6.28 20.82 16.73 24.42 30.42a63 63 0 0 1 1.78 24.75c-1 7-1.57 14-3.1 20.87A40.56 40.56 0 0 0 2481 2979c2.16 3.88 4.5 7.67 7 11.31a3.86 3.86 0 0 0 3.41 1.24c10.44-3.85 19.23-10 25.59-19.29 2.17-3.15 3.78-6.67 5.74-10 6.38-10.73 16-16.21 28.31-17.1 4.44-.32 8.94.2 13.41.17a75.28 75.28 0 0 0 11.45-.55c4.72-.77 8.39-3.63 9.61-8.34 3.39-13.15 4.15-26.45 1-39.81-3.7-15.82-17.89-21-30.91-19.25a14.2 14.2 0 0 0-5.35 1.94c-9.61 5.83-16.73 13.74-20 24.71a9.94 9.94 0 0 0 .88 7.4c1 2.06 4.32 3.82 6.34 3.28a13.43 13.43 0 0 0 9.53-8.65c.51-1.4-1-3.5-1.48-5.31a3.65 3.65 0 0 1 4.35-4.36c5.28 1.06 10.8 8.12 9.77 12.53a7 7 0 0 1-.65 1.8 35.59 35.59 0 0 1-14.64 14.73 10.86 10.86 0 0 1-9.31.45c-6.81-2.69-12.24-7.08-14.43-14.36-1.83-6.11-3.63-12.25-3.65-18.77 0-10.53 5.27-18.4 15.18-22.1a12.5 12.5 0 0 1 1.78-.68c14-2.84 27.93-3.29 41.43 2.52 13.06 5.63 21.92 15.14 26.52 28.63 4 11.87 4.09 23.83 1 35.88-.79 3.09-1.95 6.08-2.84 9.15-5 17.09.86 31.38 11.87 44.12.89 1 3.83 1.36 5.24.73a64 64 0 0 0 18.83-13 44.14 44.14 0 0 0 10.25-16 47.87 47.87 0 0 0 1.59-5.53c4.93-20.2 16.92-35.87 32.94-48.18 11.62-8.92 24.52-16.19 37-24a10.16 10.16 0 0 1 9.19-.71c4.72 1.7 9.29 11.95 7.27 16.37a14.63 14.63 0 0 1-4.45 6 55.7 55.7 0 0 1-10.29 5c-14.68 6.06-26 16-34.68 29.2a159.35 159.35 0 0 0-18.46 37.79c-.32 1 .36 2.4.85 3.5.58 1.33 1.8 1.61 3.26 1.11.6-.21 1.24-.28 1.85-.47 12.19-3.75 21.21-11.8 28.24-22 5.07-7.34 9.23-15.32 13.65-23.09 2.21-3.88 4-8 6.13-11.93 1.38-2.57 6-2.72 8.34-.5 3.87 3.66 6.55 8 6.76 13.34.45 12.15.65 24.3 1 36.44.12 4.47.22 8.94.66 13.37.07.69 2.18 1.94 2.87 1.67a25.83 25.83 0 0 0 6.64-3.58c9.14-7 18.16-14.08 27.25-21.12 1.28-1 2.44-.61 3.08 1a3.92 3.92 0 0 1 .15 1.81 3.82 3.82 0 0 1-.52 1.8 126.33 126.33 0 0 1-27 27c-6.34 4.64-13.63 3.51-18.63-3-3.08-4-5.42-8.62-8.08-13-3.32-5.43-6.54-10.93-10-16.3a4.07 4.07 0 0 0-6.55-.34c-7.21 9-14.33 18-21.48 27-2.78 3.5-5.4 7.13-8.37 10.46-2.74 3.09-9.13 3.4-12.33.62a99.61 99.61 0 0 1-9.63-9.31c-9.15-10.45-10.56-9.9-22-1.14-12.5 9.58-17.5 23.26-19.34 38.31-.54 4.43-.37 8.95-.55 13.42-.78 19.79-9.07 35.72-24.85 47.62a149.23 149.23 0 0 1-40.4 21.69 34.27 34.27 0 0 1-26.17-.89 18.48 18.48 0 0 1-10.67-22.09 54.56 54.56 0 0 1 7.24-15.59c12.77-19.57 28.42-36.16 49-47.75a111.33 111.33 0 0 0 9.8-6c10.32-7.3 16.8-18.63 11.78-35.4-.68-2.25-4.19-3.32-6.36-1.84-4.75 3.23-9.28 6.85-14.27 9.65-9 5.05-18.35 4.84-27.61.49a40 40 0 0 1-6.63-3.83c-11.08-8.1-11.62-7.32-20.67 1.69-2.26 2.26-4.42 4.64-6.76 6.81-9.9 9.17-14.5 20.79-16 33.92-.8 7-1.46 14-2.82 20.87-3 15-10.94 27.13-22.56 36.92A127.34 127.34 0 0 1 2432 3109a63.76 63.76 0 0 1-28.16 4.8c-12.13-.58-20-10.88-17-22.57a83.53 83.53 0 0 1 15.45-30.62 140.6 140.6 0 0 1 21.53-21.82c7.9-6.5 16-12.8 24-19.14 3-2.38 6.13-4.61 9.21-6.91 7.31-5.47 10.27-12.7 9.2-21.79-.66-5.62-3.87-7.79-9.14-5.74-7.14 2.79-14.25 5.66-21.47 8.22a20.56 20.56 0 0 1-15-.65c-3.54-1.45-7.06-3-10.47-4.73s-6.71-3.72-10-5.69c-13.94-8.32-12.33-6.9-26.67-1.77-5.42 1.93-10.69 4.28-16 6.45-3.55 1.45-7.08 3-10.64 4.38a70.22 70.22 0 0 1-28.2 4.63c-16.36-.43-29.59-7.21-40.12-19.49a66.9 66.9 0 0 1-11.64-19.74 360.5 360.5 0 0 1-13.65-43.92c-1-4.13 1.67-7.39 6.45-7s8.59-.2 11.81-4.3a88.84 88.84 0 0 1 11.73-12.62c15.58-13.32 33.49-18.06 53.65-13.46 8.53 1.94 15 6.72 19.83 14 8.46 12.75 3.07 30.2-4.42 37.2a25.34 25.34 0 0 1-17.24 7.33c-6.39.11-12.79 0-19.18 0-.03-.22-.04-.52-.06-.83zM2586 3041c.46-4.6.89-5.94.62-7.11a6.4 6.4 0 0 0-2-2.75 1.92 1.92 0 0 0-1.8-.19c-13.18 7.7-26.34 15.46-38.05 25.32a91.86 91.86 0 0 0-11.95 12.28 54.82 54.82 0 0 0-11.73 27.74c-.27 2 2.1 5.2 4.12 5.72 6.47 1.66 12.79 1.2 18.36-2.46a66 66 0 0 0 11.66-9.68c6.11-6.46 11.76-13.35 18.93-18.77 3.69-2.79 5.7-6.93 7-11.18 2.13-7.29 3.77-14.75 4.84-18.92zm-123.24-6.91a28.07 28.07 0 0 0 0-3.52c-.12-.61-.29-1.52-.7-1.7-1-.44-2.53-1.11-3.16-.68-10.44 7.19-20.91 14.34-31.06 21.94a126.53 126.53 0 0 0-14.1 12.71A64.41 64.41 0 0 0 2399 3087c-1.47 4.14-3.55 8.91-.65 12.75 3.41 4.51 8.11 1 12.12.06 6.24-1.52 11.75-4.74 16.84-8.58 19.69-14.82 30.6-34.96 35.43-57.14zM2313 2923.52c3.7-.23 8.23-.07 12.58-.87 10.41-1.92 19.2-6.59 24.65-16.22a6.45 6.45 0 0 0-.55-7 25 25 0 0 0-14.7-8.16c-14-2.43-25.22 1.44-32.78 13.85-2.6 4.26-7.3 8.75-5.17 13.73 2.77 6.32 9.97 3.41 15.97 4.67zm103.79 56.55c13.31 1.26 20.21-3.42 24.62-12.28.84-1.7 1.51-3.49 2.18-5.27 1.27-3.36-2.19-8-6-7.86a30.26 30.26 0 0 0-7.47 1.12c-8.05 2.44-14.8 7.27-21.35 12.32-1.3 1-1.9 3.12-2.4 4.84-.44 1.52 2.44 5.28 4.26 5.74 3.08.79 6.19 1.39 6.2 1.39zm127.33.35c11.22 0 16.81-3.29 21.37-11.81.89-1.65 1.37-3.51 2.12-5.24 1.24-2.89.79-5.4-.82-6.85a9.13 9.13 0 0 0-7-2.08 20.6 20.6 0 0 0-5.48 1.28c-7.84 2.68-14.59 7.29-21.18 12.15-1.63 1.21-3.18 5.33-2.38 6.81 1.22 2.25 3 4.13 5.63 4.62 3.1.58 6.23.9 7.78 1.12z" class="cls-1" transform="translate(-22.61 -15.76)"/>
  <path d="M2430.22 592.59c5.74 5 10.56 9.19 15.26 13.46a314.69 314.69 0 0 0 42.59 32.62c43.23 27.44 90.41 41.31 141.63 41.26q9.6 0 19.19-.39c31.31-1.21 62.62-2.39 93.92-3.79 7-.31 14-1.31 21-2.24 14.31-1.89 27-7.82 38.23-16.66 19.09-15 38-30.35 56.87-45.61 37.38-30.14 60-69.09 69.39-116a317.38 317.38 0 0 0 6.52-55.15c.4-16.62.11-33.25.18-49.88 0-6.35.18-12.71.27-18.81 2.84-1 4.13.28 4.72 2.05 3 9.08 6.43 18.07 8.75 27.34 15 60 12 119.18-9.9 177.15a265.89 265.89 0 0 1-48.07 80.2 171.52 171.52 0 0 1-50.61 40.53c-11.32 5.9-23 11.1-34.83 16-12.39 5.13-25.09 9.53-37.67 14.21a198.08 198.08 0 0 1-86.73 11.66c-31.25-2.65-62.31-7-92.74-14.65-71.94-18-124-61.14-157.83-126.69-.76-1.41-.14-3.47-.14-6.61zM2881.38 253.83c-4.58 1.09-8.84-.43-13.14-1.64-14.14-4-28.2-8.3-42.44-11.88a446.54 446.54 0 0 0-94.66-13.8 840.47 840.47 0 0 0-118.72 4c-20.32 2.21-38.37 9.45-53.76 22.95-15.85 13.91-31.58 28-47.34 42-18.32 16.29-33.14 35.3-45.39 56.57a365.46 365.46 0 0 0-44.15 121.9c-4.54 26.55-6.39 53.3-3 80.2.4 3.15.45 6.35.58 9.53a9.24 9.24 0 0 1-.73 2.36c-1.56-.93-3.9-1.49-4.31-2.71-8.22-24.2-15.55-48.46-18.19-74.22-5.47-53.26 1.3-104.56 20.89-154.21 11.82-29.94 28.36-57.2 48.45-82.31a119.72 119.72 0 0 1 38.1-31.54c38-20.09 77.4-36.61 119.65-45.47 13.73-2.88 27.53-5.64 41.65-6.17 17.42-.66 34.43 2.11 51.3 5.82 10.59 2.34 21 5.43 31.47 8.37 13.53 3.81 26.92 8.12 40.52 11.64 23.25 6 44.22 16.64 63.36 30.88 9.72 7.24 18.81 15.32 28.13 23.1a4.42 4.42 0 0 1 1.39 5.08zM2178.4 2797.9c-1.71.31-3.35.14-3.83.8a32.43 32.43 0 0 0-3.66 6.63q-20 48.8-39.94 97.62c-4.38 10.67-8.2 21.46-9.74 33a80.66 80.66 0 0 1-3.35 13 164.58 164.58 0 0 0-7.69 49.09c0 3.2-.17 6.4-.37 9.59-.36 5.81-2.88 7.82-8.55 7.29s-9.71-3-11.91-8.24a51.8 51.8 0 0 1-2.5-7.22c-4.36-17.36-8.56-34.75-13-52.09-3.49-13.67-6-27.44-6.38-41.61a58.89 58.89 0 0 0-2.32-15.1c-5.61-19-11.39-37.95-17.59-56.76-2.38-7.25-6-14.11-9.22-21.05-.4-.88-1.95-1.42-3.07-1.7-1.32-.33-2.21.67-2.12 2.31.31 5.73.31 11.52 1.16 17.18 2.67 17.77 3.13 35.65 3.44 53.57.36 20.67-3.08 40.77-8.84 60.5-3 10.42-6.71 20.66-10.11 31-.6 1.82-1.29 3.61-1.91 5.43-7.13 20.85-22.7 31.8-43.32 36.58-11 2.54-21.61 1.35-31.56-4.34a84.44 84.44 0 0 1-18.28-13.87 35.19 35.19 0 0 1-10.32-22.14c-.94-10.38-.07-20.43 5.16-29.76a30.43 30.43 0 0 1 30.65-15.45c17.18 2.4 24.41 13.72 26.6 24a34.86 34.86 0 0 1-.35 17.07 22.16 22.16 0 0 1-32.36 13.2 14.64 14.64 0 0 1-7.76-12.47c-.13-2.74.8-5.31 3-6.67a43 43 0 0 1 8.67-3.63c2-.68 4.18 1.42 3.61 3.19-1.15 3.59-2.36 7.16-3.44 10.78a1.72 1.72 0 0 0 .67 1.53c1.09.47 2.59 1.27 3.43.88 6.51-3 9.43-7.87 7.87-13.52a77.72 77.72 0 0 0-4.68-12.5c-2.29-4.88-7.31-6.26-13-5.12-15.07 3-23.17 23.27-11.94 36.66 6.77 8.07 15 13.87 25.21 16.59 14.56 3.87 28.81-2 35.85-15.23a104.42 104.42 0 0 0 6.71-15.87c7.7-23.06 14.62-46.36 18.68-70.36 3.63-21.49 5.87-43.11 2.16-64.9a81.57 81.57 0 0 1-.44-26.73 65.1 65.1 0 0 0 .49-7.66c.43-11.26-2.14-21.56-9.66-30.31a15.85 15.85 0 0 1-3-4.77c-.31-.86.47-3 1.07-3.15 10.12-2.13 20.2-2.39 30.25.82 8.34 2.66 14.92 7.56 19 15.14a101.59 101.59 0 0 1 7.33 17.64c4.06 12.79 7.66 25.72 11.4 38.61a499 499 0 0 1 12.5 56.11 405.51 405.51 0 0 0 12.39 52.84c1.77-.8 4-1.08 4.63-2.23a111.27 111.27 0 0 0 5.38-12.24c10.48-26.79 20.86-53.61 31.39-80.38q9.14-23.19 18.63-46.25c2.18-5.31 4.52-10.59 7.19-15.67a56.55 56.55 0 0 1 14.34-17.81c3.66-3 7.73-4.63 12.38-4.22 5.07.45 10.13 1.21 15.15 2.07a4.78 4.78 0 0 1 3.69 7.09c-2.45 5.21-5 10.36-7.49 15.55s-4.82 10.45-7.44 15.57c-2.8 5.48-3.62 10.84-.42 16.44 6.78 11.86 6.29 24.51 3.87 37.33-1.54 8.16-3.47 16.26-4.73 24.47a124.07 124.07 0 0 0 1.44 47.64 102.84 102.84 0 0 0 10.91 28.55c3.61 6.21 5.76 12.52 5.72 19.91-.05 12.24 6.79 20.16 17.78 24.81a3.43 3.43 0 0 0 4.3-2.53c1.29-7.54 2.57-15.09 3.66-22.67.09-.68-1.14-1.62-1.88-2.29-.13-.11-1.25.47-1.41.91-1.07 3-1.84 6.1-3.07 9-.41 1-1.81 1.61-2.87 2.21-.25.14-1.16-.38-1.42-.81-2-3.24-4.34-6.35-5.74-9.84-3.45-8.6 2.39-18.17 12.14-20a7.29 7.29 0 0 1 5.23 1.55c1.91 1.56 4 3.63 4.63 5.88 3.29 11 6.93 22 6 33.76a16 16 0 0 1-13.58 14.09 25.6 25.6 0 0 1-5.73.17c-13.21-1.44-24.6-6.62-33.56-16.65a49.45 49.45 0 0 1-12.14-23.59 165.23 165.23 0 0 1-2.84-20.88c-1.54-23-3.13-46-4-69-.82-21.72-.75-43.48-1-65.22-.12-7.05-.16-14.05-.23-21.15zM3322.45 3015.43c-1.54-.17-4.75-.3-7.88-.87-7.82-1.41-14.66-4.85-19.31-11.44a173.93 173.93 0 0 1-11.12-17.86c-6.39-11.85-10.73-24.57-14.95-37.32-2.61-7.88-5.15-15.81-8.15-23.55-1.93-5-5.6-8.86-11.2-9.39-18.45-1.76-36.93-3.19-55.4-4.74a15.39 15.39 0 0 0-1.92 0c-1.94.05-5.38 2.39-5.95 4.23-1.71 5.49-3.32 11-5 16.51-3 9.77-5.66 19.66-9.08 29.28a150.18 150.18 0 0 1-9.26 21c-12.22 22.64-32 32.32-57.1 31.39-21.58-.81-39.14-10.87-54-25.95-6.15-6.26-8.43-14.53-7.86-23 .87-12.91 4.45-25.21 12.05-35.93 10.27-14.47 24.31-20 41.81-17 5.19.88 9.5 3.62 14.06 5.89 6.23 3.11 8.36 2.61 13-3 1.64-2 3.23-4 4.76-6 8-10.85 18.77-14.76 32-12.63a67.39 67.39 0 0 0 11.43.87 8.72 8.72 0 0 0 7.79-4.77 71.42 71.42 0 0 0 3.83-8.74c4-10.79 7.62-21.72 11.9-32.39 5.48-13.63 11.36-27.11 17.28-40.55 4.41-10 8.45-20 8.92-31.13a28.66 28.66 0 0 1 .43-3.81c1.71-9.82 8.7-15.81 18.74-15.63 10.85.19 21.69.71 32.54 1.12a15.25 15.25 0 0 1 1.83.45c1.4.23 3.13 3.45 2.32 4.46a44.26 44.26 0 0 1-3.75 4.33c-5.66 5.35-6.91 12-5.83 19.34.38 2.52 1.27 5 1.7 7.46 1.75 10.06 4 20.07 5 30.2 1.87 19.73 3 39.53 4.43 59.3a91.6 91.6 0 0 0 1.07 9.51c.81 4.58 6.68 8.48 11.61 8.15 7.16-.48 13.5-3.7 20.15-5.89s13.22-4.56 19.9-6.6c.82-.25 2.68.78 3.09 1.67 3.26 7.1-.23 16.24-6.89 19.56-4.76 2.37-9.78 2.79-14.89 3.09-7.64.45-15.29.78-22.93 1.27-2.3.15-4.22 3.37-3.66 5.73.14.61.16 1.26.29 1.88a11.84 11.84 0 0 0 .49 1.86q11.59 30.45 23.26 60.88a48.31 48.31 0 0 0 4.18 8.62c3.22 5.08 7.87 8.52 13.91 9.18 2.31.25 5.52-.37 7.07-1.88 7.18-7 11.49-15.33 8.93-25.8a6.92 6.92 0 0 0-2.09-2.79c-.87-.88-4.06.69-4.69 2.29-1.4 3.57-2.76 7.16-4.11 10.75a36.54 36.54 0 0 1-2 5.36c-.56 1-1.89 1.55-3 2.16-1.27.73-4.21-.47-5-1.86-4.62-8.39-5.33-17.18-1-25.66 3.05-6 8.87-9.23 15.67-9.5a10 10 0 0 1 6.93 2.49c9.91 10.46 13.92 22.86 9.85 37-1.82 6.27-6.29 11-12.21 14.16-6.34 3.43-13.22 4.3-21.99 4.24zm-209.72-64.75a58.55 58.55 0 0 0-.6-7.93 21 21 0 0 0-2.57-7.1 22.1 22.1 0 0 0-30.2-7.22c-16 9.58-25.4 36.06-10.62 53.21a97.82 97.82 0 0 0 10.68 10.86c12.43 10.56 33.52 11.3 47.57-1a70.22 70.22 0 0 0 13.47-16.05c11.78-19 22.17-38.69 32.42-58.51a6.72 6.72 0 0 0 .79-3.67 4.91 4.91 0 0 0-1.69-3.17c-3.88-2.61-8.42-2.55-12.89-2.73-8.5-.36-14.66 3.45-19.1 10.45a77.51 77.51 0 0 0-11.73 30.06c-.57 3.77-.64 7.63-1.31 11.39a21.77 21.77 0 0 1-34.12 14c-8.49-5.9-12.77-14.13-11.61-24.61.76-6.85 4.61-11.68 11.11-14.09.67-.25 2.8 1.17 2.75 1.66-.51 5-1.51 10-2 15a15.27 15.27 0 0 0 4.62 12.16c2.31 2.4 5.67 2.74 8.91 1.71a6.59 6.59 0 0 0 4.86-5.3c.53-3.1.88-6.26 1.26-9.12zm81.92-55.18c19.63 3.6 37.33 5.7 55 7.72 4.59.53 7.42-2.39 6.93-6.68-.87-7.61-1.82-15.22-2.72-22.83-2.84-24.11-5.61-48.23-8.54-72.33a148.24 148.24 0 0 0-2.88-15 3.16 3.16 0 0 0-2.56-1.76 4.75 4.75 0 0 0-3 2 26.67 26.67 0 0 0-2.48 5.16q-18.39 46.29-36.71 92.63c-1.09 2.85-1.69 6-3.04 11.09zM3741.76 532.19c0-14.7-.09-29.4-3.17-43.9-.92-4.29-.67-8.84-.87-13.28 0-.55.52-1.63.76-1.61 1.19.06 2.71 0 3.49.72 5.33 4.78 8.62 11 11.73 17.34a114.3 114.3 0 0 1 11.05 42.4 183.6 183.6 0 0 1-5.69 60.82 459.39 459.39 0 0 1-20.2 59.9q-23.4 56.14-77.15 84.73a241.34 241.34 0 0 1-42.47 17.5c-23.28 7.21-47 12.2-71.35 13.91a195.09 195.09 0 0 1-24.89.33c-30.75-1.8-60.86-7.49-90.5-15.74-27.54-7.67-49.48-23.41-66.25-46.41-5.64-7.74-11.11-15.64-14.3-24.81-.19-.53-.25-1.54 0-1.68 1-.57 2.49-1.55 3.27-1.2 5.82 2.56 11.56 5.33 17.25 8.18 18.86 9.46 37.86 18.55 57.56 26.19a249.76 249.76 0 0 0 109.08 16.24q17.22-1.2 34.49-1.56c21.66-.5 41.46-6.89 59.78-18.22 2.72-1.68 5.44-3.38 8-5.29a371.17 371.17 0 0 0 63-58.69c23.42-27.82 35.08-60.55 37.3-96.7.41-6.36.08-12.78.08-19.17zM3588.91 379.88l-38.26-2.2c-19.9-1.12-39.62 1-59.16 4.19-30.85 5-58.48 17.92-83.28 36.81-40 30.47-67.13 69.63-79 118.78a192.59 192.59 0 0 0-5.51 45.54c0 8.28-.4 16.56-.68 24.83 0 .58-.52 1.13-.79 1.69-1.05-.52-2.67-.77-3.06-1.61a89.26 89.26 0 0 1-7.87-31.38 183.31 183.31 0 0 1 3.83-55.19c6.48-28.21 16.06-55.14 30.67-80.18 22.49-38.53 53.49-68.08 93.47-88.06 37.33-18.66 76.72-23.17 117.52-16.47 25.25 4.14 49.75 11.44 73.93 19.74a77.82 77.82 0 0 1 14 6.23c6.13 3.58 11.28 8.32 14 15.23 1 2.51-.39 5.8-2.8 5.75-5.73-.11-11.48-.17-17.2-.55-16.57-1.07-33.13-2.29-49.7-3.46-.1.11-.1.21-.11.31zM934 2809c-3.3-1-5.57-.17-7.93 1-3.39 1.7-6.93 3.11-10.45 4.53-.43.17-1.16-.3-1.71-.57-1.19-.59-1.28-1.63-.37-3a35.14 35.14 0 0 1 13.85-12.96c7.37-3.74 16.39.53 17.76 8.62a37.31 37.31 0 0 1 .48 7.61c-.28 7.12-2.31 13.9-5 20.41-5.7 13.94-20.25 22.6-35.32 21.44-27-2.08-45.78-29.18-37.84-55.19a81.92 81.92 0 0 1 16.81-29.89 30.46 30.46 0 0 1 23.63-10.89c5.09 0 10.19.62 15.29 1 3.18.23 6.37.55 9.56.7 5.39.27 10.4-.94 13.41-5.75 3.19-5.08 7.56-6.28 13.11-5.73 12.72 1.26 25.48 2.2 38.19 3.58a43.53 43.53 0 0 1 11.06 2.92 59.57 59.57 0 0 0 22.51 3.83c7.66 0 15.31.94 23 1.33 9.76.49 19.21-.38 27.21-6.95a17.46 17.46 0 0 1 3.37-1.79c2.07-1 5.37 1.21 5.56 3.64.69 8.79-4 14.61-11 18.66a35.18 35.18 0 0 1-16.48 4.64q-13.41.45-26.83.63c-4.47.07-8.95-.36-13.41-.14-5.58.27-9.59 3.38-12 8.29a43.89 43.89 0 0 0-3.2 9 248.17 248.17 0 0 0-6.73 49.34c-.29 8.3-.39 16.63-.09 24.93.56 16 .86 31.92-1.38 47.85-.79 5.6 0 11.47.45 17.19 2.42 29.31-7.85 53.83-27.7 74.93-9.58 10.18-21.11 13.76-34.75 11.67-12.44-1.9-23.05-7.48-32.16-15.91-14-12.95-16.64-32.56-6.66-48.94a16.42 16.42 0 0 1 5.2-5.5c12.74-7.57 26.22-9.78 40.42-4.54 8.67 3.19 13.31 9.62 14.1 18.76.68 7.94-1 15.3-6.24 21.53-4.35 5.15-9.78 9.21-17.9 1.8-1.38-1.25-1.68-3.86-.31-5a35.08 35.08 0 0 0 3.12-2.15 49.28 49.28 0 0 0 6.3-7c4.38-6.76 2.65-13.8-4.12-18.15-5.78-3.72-15.57-2-18.91 3.54-5.38 8.86-8.89 18.38-9.5 28.83-.42 7.07 2.62 12.29 8.64 15.91a29.37 29.37 0 0 0 12.57 4.31c12.19 1.16 22.63-3 32-10.34a23.51 23.51 0 0 0 8.79-14.47 124.47 124.47 0 0 0 2.25-19c.64-23 1.15-46 1.24-69 0-8.92-1.11-17.84-1.87-26.75-.5-5.73-1.34-11.43-1.92-17.15a95.11 95.11 0 0 1 13-58.93c3.23-5.51 7-10.7 10.18-16.25.77-1.34.11-3.51.11-5.77-3.43-.21-6.6-.56-9.76-.56q-28.79 0-57.56.08a95.66 95.66 0 0 0-11.49.49 14.35 14.35 0 0 0-11.77 8.7 7.24 7.24 0 0 0-.62 1.8c-1.11 6.24-4.68 9.92-10.71 12.23-5.21 2-7.31 7.26-6.17 12.57A44.35 44.35 0 0 0 890 2818c3.72 8.14 7.79 16.11 14 22.79a9.76 9.76 0 0 0 10.51 2.41 31 31 0 0 0 17.49-14.14c3.77-6.5 3.13-13.39 2-20.06zM4284 2861.72c3.26-.29 7-.67 10.82-1 14.65-1.19 29.32-2.33 44-3.55a6.13 6.13 0 0 0 5.5-4.5c1.33-6.25 2.72-12.5 3.77-18.79 2.84-17 5.52-34.08 8.27-51.12.1-.63.32-1.24.46-1.86.52-2.28 3.26-4.72 5.5-4.48a40 40 0 0 1 9.36 1.73 5.82 5.82 0 0 1 3.22 4.23 131.07 131.07 0 0 1-.83 17.15c-1.78 15.24-3.84 30.44-5.77 45.66-.16 1.27-.17 2.55-.26 3.83-.32 4.64 1.81 7.42 6.22 8 8.88 1.11 17.78 2.09 26.65 3.28a68.54 68.54 0 0 1 7.8 2.08c-1.68 2-2.58 4.22-4 4.68-7.31 2.3-14.77 4.1-22.15 6.17-3.07.86-6.11 1.88-9.12 3-8.32 3-11.19 6.91-10 16.07 1.31 10.33.22 20.32-1.38 30.49-3.08 19.65-3.13 39.49-2.32 59.33a28.66 28.66 0 0 0 1 5.65c1.6 6.55 9.18 11.72 16 11.26 4.61-.31 8.74-2 12.72-4 25.59-12.87 44.29-32.34 55-59 4.54-11.24 8-22.93 11.82-34.44 4.06-12.12 8-24.29 12.06-36.41 1.19-3.52 5.93-4.87 9.71-3.17a16.81 16.81 0 0 1 8.25 7.66 35.34 35.34 0 0 1 3.94 14.7c1.23 21.06 2.61 42.12 3.88 63.18 1.07 17.64 7.21 33.62 15.75 48.84 1.37 2.45 3.87 3.22 6.44 3.48a17.09 17.09 0 0 0 12.57-3.68c7.58-5.88 15.1-11.83 22.7-17.69 3-2.32 6.13-4.52 9.25-6.68.38-.26 1.55-.15 1.64.08.45 1.1 1.26 2.57.87 3.43-5.12 11.27-12.4 20.86-22.65 28-14.49 10-29.73 10.6-45.4 3.07a29.84 29.84 0 0 1-15.33-16.48 80.55 80.55 0 0 1-4.59-16.57c-1.83-12-3-24.1-4.49-36.16-.93-7.58-1-15.34-4.15-22.49a1.8 1.8 0 0 0-1.31-.78c-.61 0-1.53.06-1.81.45a19.1 19.1 0 0 0-2.89 4.85c-1.81 5.46-3.15 11.07-5 16.51-4.35 12.77-10 24.92-18 35.85a90.05 90.05 0 0 1-43.91 32.7 52.61 52.61 0 0 1-20.73 2.95c-12.6-.77-21.67-7.12-27.51-18.06-2.72-5.1-4-10.7-4.79-16.49-1.4-10.11-3.27-20.15-5.13-30.19a4 4 0 0 0-2.58-2.34 4.11 4.11 0 0 0-3.33.84 16 16 0 0 0-3.39 4.61c-2.78 5.75-5.83 11.43-7.95 17.43-10 28.22-29 49.37-52.16 67.26-11.77 9.1-25.29 11.69-39.82 7.55-.45-.13-.84-1-.95-1.6a1.87 1.87 0 0 1 .5-1.51 10.39 10.39 0 0 1 3-2.21 23.72 23.72 0 0 1 5.57-1.35c17-1.86 29.7-11 40.26-23.7a154.25 154.25 0 0 0 11.29-15.48c16.67-25.86 30.55-53.23 43.06-81.29a98 98 0 0 0 5.38-16.37c5.73-23.38 4.83-22.32-17.57-21.24-5.89.29-11.14 2.74-16.63 4.41-8.31 2.52-12.86.42-16.84-7.85a7.33 7.33 0 0 1 .51-7.93zM3568.68 1716.69c-3.9 0-6.46.09-9 0-19.68-.85-32.71-17-29.6-36.61.2-1.26.41-2.53.73-3.76 5.18-19.78 10.34-39.56 15.61-59.31a36.45 36.45 0 0 1 3-7 9.54 9.54 0 0 1 9.38-5.45c9.56.53 19.14 1.15 28.63 2.38 7 .9 13.78 2.7 19.89 6.53a33.37 33.37 0 0 1 15.79 22.93c1.88 9.62.75 19.13-.65 28.61-1.78 12-5.44 23.63-9.32 35.15-2.26 6.69-7.14 10.57-13.56 12.38a121 121 0 0 1-16.89 3.34c-5.1.62-10.24.6-14.01.81zM5097.41 1715.93c-3.82.27-7.65.51-11.47.83-12 1-20.86-4.53-27.89-13.69a15.79 15.79 0 0 1-3.3-10.76 59.1 59.1 0 0 1 1-9.51c4.87-21.82 9.88-43.6 14.84-65.39 1.63-7.2 6.53-11.13 13.44-11.7 14.81-1.23 29.39.34 43.08 6.52 12.15 5.49 18.37 15.49 19.77 28.48a84.07 84.07 0 0 1 .11 15.3c-1.14 14.72-4.68 29-8.89 43.09a33.88 33.88 0 0 1-1.51 3.52 17.94 17.94 0 0 1-14.37 11.3c-2.51.4-5.07.6-7.61.77-5.74.4-11.48.72-17.22 1.07.01.06.02.11.02.17zM2937.9 2948.07c.63 1.73 1.46 2.9 1.4 4-.33 6-3.2 10.94-6.68 15.58-3.13 4.16-9.28 5.81-13.76 3.48a36.08 36.08 0 0 1-8-5.21 111.46 111.46 0 0 1-9-9.93c-6.61-7.83-9-16.67-6.44-26.8 1.27-4.93 1.69-10.07 4.51-14.54 2.13-3.37 4.78-6.23 8.7-7 8.12-1.59 16.31-2.88 24.5-4 3.18-.45 6.56 0 9.05 2.22 10.92 9.9 20.79 20.69 28 33.74 3.46 6.26 3.3 12.22-.53 18.07-5.59 8.55-11 17.23-17.08 25.43-12.54 16.94-40.49 30.31-68.36 11.35-21.18-14.41-32.66-35.36-34.09-61.33 2.15-32.23 15.67-57.39 45-72.83 6.87-3.61 13.38-3.31 20.08.24 5.2 2.75 9.57 6.21 12.22 11.64 3.17 6.51-.43 15.26-7.41 16.95a79 79 0 0 1-11.33 1.38c-7.24.68-13.79 3.18-18.87 8.38-14 14.3-22.24 30.92-20.78 51.58 1.16 16.39 14.35 35.16 32.08 38.68 6.3 1.25 12.47 2.64 18.92 2.39a25.55 25.55 0 0 0 17.22-7.29 51.47 51.47 0 0 0 16-33.85 25.88 25.88 0 0 0-5.38-18 13.93 13.93 0 0 0-13.33-5.95 43.55 43.55 0 0 0-22.53 9.71 10 10 0 0 0-2.93 4.79 15.68 15.68 0 0 0 1.54 12.91 9.24 9.24 0 0 0 7.82 4.75 17 17 0 0 0 12.44-4c2.42-2.05 4.6-4.24 7.02-6.54zM1806.51 2947.64c.68.79 1.4 1.24 1.37 1.64-.48 6.52-3.09 12.23-6.9 17.43-4.38 6-12.31 7.43-18.87 3.57-10.73-6.31-16.13-16.21-18.22-28-1.59-9-1.13-17.86 4.08-25.92a27.15 27.15 0 0 1 20.34-12.86c11.36-1.44 21.68.81 30.31 8.68a36.44 36.44 0 0 1 6.22 7.25 61.45 61.45 0 0 1 8.23 21.36 46.49 46.49 0 0 1-8.77 38.08 61.26 61.26 0 0 1-16.58 15.8c-21.2 13.15-42.29 10.37-59.1-2.65-13-10.09-21.48-23.56-26.71-39a62.5 62.5 0 0 1-1-37.77c3.51-12.48 8.52-24.1 16.58-34.3 7.25-9.19 16-16.6 26.84-21.16a23.27 23.27 0 0 1 7.35-1.87c10.25-.67 21.64 7.06 25.41 17.13a8.12 8.12 0 0 1-1 7.3 16.27 16.27 0 0 1-8.73 7.14 90.65 90.65 0 0 1-9.3 2.25c-28.68 6.4-48.34 42-37 71.28 9 23.18 30.6 30.83 49.17 27.93a27.47 27.47 0 0 0 12.17-5.24c13.45-10.49 20.53-24.21 19.17-41.66a21.36 21.36 0 0 0-6.52-13.53 14.6 14.6 0 0 0-10.33-4.4c-8.94-.26-16.17 3.58-22 10-3.63 4-3.81 9.32-3.71 14.53.11 5.72 4.42 9.1 10.37 8.09 3.84-.66 7.43-1.79 10.31-4.62 2.23-2.2 4.53-4.32 6.82-6.48zM4465.35 2828.44c3-5.83 7.48-10.3 12.21-14.52a17.52 17.52 0 0 1 4.91-2.76c4-1.69 9.58.81 11.16 4.72a24.32 24.32 0 0 1 .06 18.53c-1.91 4.94-9.73 8.47-14.33 6.25-5.76-2.78-10.98-6.24-14.01-12.22zM3738.47 2825.22c-.18 2-.25 2.63-.29 3.26-.41 5.6-3.29 9.2-8.58 11.15-7.45 2.75-14.5-.79-15.56-8.38a46.53 46.53 0 0 1-.07-11.19c.51-4.77 3.39-8 8-9.45s8.75-.88 12.38 2.14a9.47 9.47 0 0 1 3.08 4.57 54.36 54.36 0 0 1 1.04 7.9z" class="cls-1" transform="translate(-22.61 -15.76)"/>
  <path d="M2881.05 254.26l1.48-.18c-.05 1.52-.43 1.44-1.14-.25-.01 0-.34.43-.34.43zM1639.07 650.88c5.87 2.45 11.78 4.84 17.62 7.36 21.12 9.1 42.17 18.34 63.32 27.35 28.6 12.18 58.44 17.84 89.57 17.91 26.32.06 52.25-2.72 78.13-7.17 12.28-2.11 23.63-6.16 33.39-13.57 23.92-18.17 47.46-36.88 67.23-59.74 15.65-18.07 27.93-38.15 34.26-61.41a182.84 182.84 0 0 0 5.52-26.21 275.63 275.63 0 0 0-1.09-74.53q-1.15-7.58-2.14-15.17c-.35-2.68.8-4.93 1.94-4.17a7 7 0 0 1 2.62 2.34 207.2 207.2 0 0 1 13.24 39.94 215.85 215.85 0 0 1 5.45 41.75 213.58 213.58 0 0 1-17.46 89.58c-10.58 24.89-25.17 47.32-42.07 68.33-8.23 10.24-19.07 16.93-30.59 22.6-27.06 13.32-55.27 23.29-85 28.95-50.63 9.65-100.52 6.78-149.51-9-35.33-11.38-63.38-32.58-82.85-64.53a30.2 30.2 0 0 1-3.13-6.87c-.25-.87.87-2.18 1.55-3.74zM1609.23 581.09c-2.55-1.16-3.41-3.6-4.28-6a98.35 98.35 0 0 1-6-30 218.53 218.53 0 0 1 10.7-77.51 255.74 255.74 0 0 1 32.09-65.2c8.26-12.16 17.43-23.7 26.46-35.31 5.64-7.25 13.07-11.76 22.09-14.36 43-12.42 85.89-25.16 129.47-35.54a146.43 146.43 0 0 1 75.79 1.79c11.69 3.34 23.28 7.07 34.21 12.46 9 4.43 15.47 11.22 17.81 21.34.36 1.54-1.54 4.06-3.1 4a28.58 28.58 0 0 1-3.82 0c-8.84-1.4-17.66-3-26.51-4.3-31.74-4.79-63.58-6.75-95.65-3.94-13.39 1.17-26.72 2.48-40 4.44a161.38 161.38 0 0 0-52.57 17.36c-38.85 20.69-69.1 50.3-90.41 88.88a170.31 170.31 0 0 0-21.51 76.96c-.48 12.79-1 25.57-1.63 38.36-.08 2.59-.79 5.02-3.14 6.57z" class="cls-1" transform="translate(-22.61 -15.76)"/>
</svg>
